Muli-BoldItalic.ufo
<glyph name="exclam" format="1">
  <advance width="688"/>
  <unicode hex="0021"/>
  <outline>
    <contour>
      <point x="223" y="387" type="line"/>
      <point x="280" y="1456" type="line"/>
      <point x="575" y="1456" type="line"/>
      <point x="371" y="387" type="line"/>
    </contour>
    <contour>
      <point x="91" y="0" type="line"/>
      <point x="125" y="273" type="line"/>
      <point x="438" y="273" type="line"/>
      <point x="405" y="0" type="line"/>
    </contour>
  </outline>
</glyph>
<glyph name="quotedbl" format="1">
  <advance width="703"/>
  <unicode hex="0022"/>
  <outline>
    <contour>
      <point x="426" y="957" type="line"/>
      <point x="436" y="1456" type="line"/>
      <point x="675" y="1456" type="line"/>
      <point x="561" y="957" type="line"/>
    </contour>
    <contour>
      <point x="84" y="957" type="line"/>
      <point x="94" y="1456" type="line"/>
      <point x="332" y="1456" type="line"/>
      <point x="219" y="957" type="line"/>
    </contour>
  </outline>
</glyph>
<glyph name="dollar" format="1">
  <advance width="1238"/>
  <unicode hex="0024"/>
  <outline>
    <contour>
      <point x="646" y="1259" type="line"/>
      <point x="516" y="1242"/>
      <point x="429" y="1187"/>
      <point x="429" y="1057" type="curve" smooth="yes"/>
      <point x="429" y="986"/>
      <point x="463" y="944"/>
      <point x="601" y="892" type="curve"/>
    </contour>
    <contour>
      <point x="616" y="198" type="line"/>
      <point x="759" y="217"/>
      <point x="833" y="294"/>
      <point x="833" y="439" type="curve" smooth="yes"/>
      <point x="833" y="505"/>
      <point x="804" y="547"/>
      <point x="666" y="602" type="curve"/>
    </contour>
    <contour>
      <point x="465" y="-219" type="line"/>
      <point x="489" y="-22" type="line"/>
      <point x="309" y="-14"/>
      <point x="131" y="44"/>
      <point x="43" y="143" type="curve"/>
      <point x="173" y="325" type="line"/>
      <point x="255" y="255"/>
      <point x="406" y="202"/>
      <point x="516" y="195" type="curve"/>
      <point x="570" y="636" type="line"/>
      <point x="531" y="649"/>
      <point x="488" y="663"/>
      <point x="451" y="676" type="curve" smooth="yes"/>
      <point x="256" y="754"/>
      <point x="156" y="845"/>
      <point x="156" y="1020" type="curve" smooth="yes"/>
      <point x="156" y="1321"/>
      <point x="387" y="1470"/>
      <point x="673" y="1482" type="curve"/>
      <point x="691" y="1626" type="line"/>
      <point x="791" y="1626" type="line"/>
      <point x="773" y="1482" type="line"/>
      <point x="997" y="1474"/>
      <point x="1098" y="1423"/>
      <point x="1198" y="1315" type="curve"/>
      <point x="1046" y="1147" type="line"/>
      <point x="961" y="1241"/>
      <point x="842" y="1261"/>
      <point x="747" y="1264" type="curve"/>
      <point x="697" y="858" type="line"/>
      <point x="743" y="843"/>
      <point x="792" y="827"/>
      <point x="832" y="811" type="curve" smooth="yes"/>
      <point x="1027" y="729"/>
      <point x="1105" y="640"/>
      <point x="1105" y="476" type="curve" smooth="yes"/>
      <point x="1105" y="136"/>
      <point x="863" y="-4"/>
      <point x="589" y="-21" type="curve"/>
      <point x="565" y="-219" type="line"/>
    </contour>
  </outline>
</glyph>
<glyph name="percent" format="1">
  <advance width="1899"/>
  <unicode hex="0025"/>
  <outline>
    <contour>
      <point x="1434" y="740" type="curve" smooth="yes"/>
      <point x="1640" y="740"/>
      <point x="1760" y="596"/>
      <point x="1760" y="412" type="curve" smooth="yes"/>
      <point x="1760" y="395"/>
      <point x="1759" y="377"/>
      <point x="1757" y="359" type="curve" smooth="yes"/>
      <point x="1730" y="141"/>
      <point x="1567" y="-20"/>
      <point x="1342" y="-20" type="curve" smooth="yes"/>
      <point x="1138" y="-20"/>
      <point x="1017" y="114"/>
      <point x="1017" y="301" type="curve" smooth="yes"/>
      <point x="1017" y="548"/>
      <point x="1194" y="740"/>
    </contour>
    <contour>
      <point x="1362" y="136" type="curve" smooth="yes"/>
      <point x="1465" y="136"/>
      <point x="1525" y="199"/>
      <point x="1546" y="359" type="curve" smooth="yes"/>
      <point x="1549" y="382"/>
      <point x="1550" y="404"/>
      <point x="1550" y="424" type="curve" smooth="yes"/>
      <point x="1550" y="529"/>
      <point x="1509" y="583"/>
      <point x="1416" y="583" type="curve" smooth="yes"/>
      <point x="1306" y="583"/>
      <point x="1250" y="508"/>
      <point x="1232" y="360" type="curve" smooth="yes"/>
      <point x="1229" y="335"/>
      <point x="1227" y="313"/>
      <point x="1227" y="293" type="curve" smooth="yes"/>
      <point x="1227" y="183"/>
      <point x="1275" y="136"/>
    </contour>
    <contour>
      <point x="297" y="0" type="line"/>
      <point x="1406" y="1456" type="line"/>
      <point x="1609" y="1456" type="line"/>
      <point x="500" y="0" type="line"/>
    </contour>
    <contour>
      <point x="557" y="1474" type="curve" smooth="yes"/>
      <point x="760" y="1474"/>
      <point x="881" y="1353"/>
      <point x="881" y="1159" type="curve" smooth="yes"/>
      <point x="881" y="879"/>
      <point x="704" y="715"/>
      <point x="464" y="715" type="curve" smooth="yes"/>
      <point x="262" y="715"/>
      <point x="138" y="828"/>
      <point x="138" y="1027" type="curve" smooth="yes"/>
      <point x="138" y="1302"/>
      <point x="314" y="1474"/>
    </contour>
    <contour>
      <point x="482" y="871" type="curve" smooth="yes"/>
      <point x="585" y="871"/>
      <point x="647" y="934"/>
      <point x="667" y="1093" type="curve" smooth="yes"/>
      <point x="670" y="1117"/>
      <point x="671" y="1138"/>
      <point x="671" y="1158" type="curve" smooth="yes"/>
      <point x="671" y="1263"/>
      <point x="630" y="1318"/>
      <point x="536" y="1318" type="curve" smooth="yes"/>
      <point x="426" y="1318"/>
      <point x="370" y="1242"/>
      <point x="352" y="1094" type="curve" smooth="yes"/>
      <point x="349" y="1071"/>
      <point x="348" y="1049"/>
      <point x="348" y="1030" type="curve" smooth="yes"/>
      <point x="348" y="918"/>
      <point x="394" y="871"/>
    </contour>
  </outline>
</glyph>
<glyph name="ampersand" format="1">
  <advance width="1587"/>
  <unicode hex="0026"/>
  <outline>
    <contour>
      <point x="570" y="1126" type="curve" smooth="yes"/>
      <point x="570" y="1066"/>
      <point x="596" y="1013"/>
      <point x="641" y="960" type="curve"/>
      <point x="737" y="1016"/>
      <point x="819" y="1076"/>
      <point x="819" y="1171" type="curve" smooth="yes"/>
      <point x="819" y="1242"/>
      <point x="762" y="1266"/>
      <point x="710" y="1266" type="curve" smooth="yes"/>
      <point x="632" y="1266"/>
      <point x="570" y="1224"/>
    </contour>
    <contour>
      <point x="564" y="186" type="curve" smooth="yes"/>
      <point x="691" y="186"/>
      <point x="790" y="244"/>
      <point x="874" y="314" type="curve"/>
      <point x="565" y="698" type="line"/>
      <point x="443" y="633"/>
      <point x="321" y="552"/>
      <point x="321" y="395" type="curve" smooth="yes"/>
      <point x="321" y="272"/>
      <point x="420" y="186"/>
    </contour>
    <contour>
      <point x="443" y="856" type="curve"/>
      <point x="372" y="947"/>
      <point x="325" y="1018"/>
      <point x="325" y="1114" type="curve" smooth="yes"/>
      <point x="325" y="1352"/>
      <point x="521" y="1470"/>
      <point x="724" y="1470" type="curve" smooth="yes"/>
      <point x="934" y="1470"/>
      <point x="1063" y="1385"/>
      <point x="1063" y="1202" type="curve" smooth="yes"/>
      <point x="1063" y="1189"/>
      <point x="1063" y="1177"/>
      <point x="1061" y="1163" type="curve" smooth="yes"/>
      <point x="1042" y="1014"/>
      <point x="914" y="896"/>
      <point x="770" y="809" type="curve"/>
      <point x="1028" y="483" type="line"/>
      <point x="1118" y="620"/>
      <point x="1165" y="775"/>
      <point x="1185" y="944" type="curve"/>
      <point x="1408" y="895" type="line"/>
      <point x="1383" y="688"/>
      <point x="1290" y="462"/>
      <point x="1165" y="304" type="curve"/>
      <point x="1259" y="192"/>
      <point x="1364" y="159"/>
      <point x="1457" y="127" type="curve"/>
      <point x="1277" y="-19" type="line"/>
      <point x="1145" y="4"/>
      <point x="1098" y="40"/>
      <point x="1004" y="155" type="curve"/>
      <point x="885" y="56"/>
      <point x="723" y="-28"/>
      <point x="536" y="-28" type="curve" smooth="yes"/>
      <point x="267" y="-28"/>
      <point x="72" y="115"/>
      <point x="72" y="360" type="curve" smooth="yes"/>
      <point x="72" y="621"/>
      <point x="250" y="749"/>
    </contour>
  </outline>
</glyph>
<glyph name="parenleft" format="1">
  <advance width="689"/>
  <unicode hex="0028"/>
  <outline>
    <contour>
      <point x="302" y="-171" type="line"/>
      <point x="191" y="37"/>
      <point x="109" y="288"/>
      <point x="109" y="535" type="curve" smooth="yes"/>
      <point x="109" y="579"/>
      <point x="112" y="622"/>
      <point x="117" y="665" type="curve" smooth="yes"/>
      <point x="155" y="968"/>
      <point x="302" y="1253"/>
      <point x="501" y="1516" type="curve"/>
      <point x="743" y="1516" type="line"/>
      <point x="536" y="1245"/>
      <point x="399" y="940"/>
      <point x="365" y="663" type="curve" smooth="yes"/>
      <point x="360" y="623"/>
      <point x="358" y="583"/>
      <point x="358" y="541" type="curve" smooth="yes"/>
      <point x="358" y="310"/>
      <point x="427" y="49"/>
      <point x="535" y="-171" type="curve"/>
    </contour>
  </outline>
</glyph>
<glyph name="parenright" format="1">
  <advance width="689"/>
  <unicode hex="0029"/>
  <outline>
    <contour>
      <point x="-53" y="-191" type="line"/>
      <point x="155" y="80"/>
      <point x="292" y="385"/>
      <point x="325" y="663" type="curve" smooth="yes"/>
      <point x="330" y="703"/>
      <point x="332" y="744"/>
      <point x="332" y="787" type="curve" smooth="yes"/>
      <point x="332" y="1018"/>
      <point x="262" y="1277"/>
      <point x="155" y="1496" type="curve"/>
      <point x="389" y="1496" type="line"/>
      <point x="499" y="1289"/>
      <point x="581" y="1038"/>
      <point x="581" y="791" type="curve" smooth="yes"/>
      <point x="581" y="747"/>
      <point x="578" y="703"/>
      <point x="573" y="660" type="curve" smooth="yes"/>
      <point x="535" y="357"/>
      <point x="388" y="72"/>
      <point x="189" y="-191" type="curve"/>
    </contour>
  </outline>
</glyph>
<glyph name="asterisk" format="1">
  <advance width="1054"/>
  <unicode hex="002A"/>
  <outline>
    <contour>
      <point x="624" y="644" type="line"/>
      <point x="486" y="892" type="line"/>
      <point x="287" y="643" type="line"/>
      <point x="119" y="770" type="line"/>
      <point x="364" y="1002" type="line"/>
      <point x="99" y="1110" type="line"/>
      <point x="207" y="1289" type="line"/>
      <point x="435" y="1164" type="line"/>
      <point x="440" y="1456" type="line"/>
      <point x="675" y="1456" type="line"/>
      <point x="605" y="1164" type="line"/>
      <point x="868" y="1289" type="line"/>
      <point x="929" y="1110" type="line"/>
      <point x="635" y="1002" type="line"/>
      <point x="823" y="771" type="line"/>
    </contour>
  </outline>
</glyph>
<glyph name="plus" format="1">
  <advance width="1268"/>
  <unicode hex="002B"/>
  <outline>
    <contour>
      <point x="455" y="77" type="line"/>
      <point x="504" y="470" type="line"/>
      <point x="124" y="470" type="line"/>
      <point x="150" y="676" type="line"/>
      <point x="531" y="676" type="line"/>
      <point x="580" y="1071" type="line"/>
      <point x="812" y="1071" type="line"/>
      <point x="763" y="676" type="line"/>
      <point x="1143" y="676" type="line"/>
      <point x="1117" y="470" type="line"/>
      <point x="736" y="470" type="line"/>
      <point x="688" y="77" type="line"/>
    </contour>
  </outline>
</glyph>
<glyph name="zero" format="1">
  <advance width="1272"/>
  <unicode hex="0030"/>
  <outline>
    <contour>
      <point x="544" y="-23" type="curve" smooth="yes"/>
      <point x="260" y="-23"/>
      <point x="113" y="204"/>
      <point x="113" y="558" type="curve" smooth="yes"/>
      <point x="113" y="616"/>
      <point x="117" y="677"/>
      <point x="125" y="741" type="curve" smooth="yes"/>
      <point x="182" y="1207"/>
      <point x="395" y="1483"/>
      <point x="730" y="1483" type="curve" smooth="yes"/>
      <point x="1016" y="1483"/>
      <point x="1161" y="1267"/>
      <point x="1161" y="922" type="curve" smooth="yes"/>
      <point x="1161" y="865"/>
      <point x="1157" y="805"/>
      <point x="1149" y="741" type="curve" smooth="yes"/>
      <point x="1094" y="287"/>
      <point x="881" y="-23"/>
    </contour>
    <contour>
      <point x="371" y="532" type="curve" smooth="yes"/>
      <point x="371" y="328"/>
      <point x="424" y="194"/>
      <point x="574" y="194" type="curve" smooth="yes"/>
      <point x="762" y="194"/>
      <point x="852" y="424"/>
      <point x="890" y="740" type="curve" smooth="yes"/>
      <point x="897" y="800"/>
      <point x="901" y="860"/>
      <point x="901" y="917" type="curve" smooth="yes"/>
      <point x="901" y="1111"/>
      <point x="852" y="1266"/>
      <point x="706" y="1266" type="curve" smooth="yes"/>
      <point x="463" y="1266"/>
      <point x="371" y="855"/>
    </contour>
  </outline>
</glyph>
<glyph name="two" format="1">
  <advance width="1272"/>
  <unicode hex="0032"/>
  <outline>
    <contour>
      <point x="643" y="1266" type="curve" smooth="yes"/>
      <point x="470" y="1266"/>
      <point x="260" y="1138"/>
      <point x="259" y="1138" type="curve" smooth="yes"/>
      <point x="198" y="1337" type="line"/>
      <point x="198" y="1337"/>
      <point x="411" y="1481"/>
      <point x="691" y="1481" type="curve" smooth="yes"/>
      <point x="929" y="1481"/>
      <point x="1081" y="1352"/>
      <point x="1081" y="1089" type="curve" smooth="yes"/>
      <point x="1081" y="807"/>
      <point x="917" y="657"/>
      <point x="762" y="513" type="curve" smooth="yes"/>
      <point x="435" y="208" type="line"/>
      <point x="968" y="208" type="line"/>
      <point x="942" y="0" type="line"/>
      <point x="98" y="0" type="line"/>
      <point x="121" y="183" type="line"/>
      <point x="600" y="651" type="line" smooth="yes"/>
      <point x="763" y="811"/>
      <point x="837" y="880"/>
      <point x="837" y="1054" type="curve" smooth="yes"/>
      <point x="837" y="1217"/>
      <point x="756" y="1266"/>
    </contour>
  </outline>
</glyph>
<glyph name="three" format="1">
  <advance width="1272"/>
  <unicode hex="0033"/>
  <outline>
    <contour>
      <point x="530" y="-23" type="curve" smooth="yes"/>
      <point x="232" y="-23"/>
      <point x="89" y="100"/>
      <point x="89" y="100" type="curve"/>
      <point x="190.894" y="290.802" type="line"/>
      <point x="199.042" y="284.244"/>
      <point x="342.75" y="194"/>
      <point x="513" y="194" type="curve" smooth="yes"/>
      <point x="695" y="194"/>
      <point x="803" y="283"/>
      <point x="820" y="424" type="curve" smooth="yes"/>
      <point x="821" y="434"/>
      <point x="822" y="443"/>
      <point x="822" y="452" type="curve" smooth="yes"/>
      <point x="822" y="589"/>
      <point x="688" y="651"/>
      <point x="480" y="651" type="curve" smooth="yes"/>
      <point x="448" y="651" type="line"/>
      <point x="384" y="649" type="line"/>
      <point x="409" y="864" type="line"/>
      <point x="480" y="864" type="line" smooth="yes"/>
      <point x="736" y="864"/>
      <point x="840" y="920"/>
      <point x="861" y="1097" type="curve" smooth="yes"/>
      <point x="862" y="1103"/>
      <point x="862" y="1110"/>
      <point x="862" y="1116" type="curve" smooth="yes"/>
      <point x="862" y="1217"/>
      <point x="747" y="1266"/>
      <point x="634" y="1266" type="curve" smooth="yes"/>
      <point x="468" y="1266"/>
      <point x="367" y="1187"/>
      <point x="315" y="1160" type="curve"/>
      <point x="225" y="1343" type="line"/>
      <point x="378" y="1437"/>
      <point x="472" y="1483"/>
      <point x="695" y="1483" type="curve" smooth="yes"/>
      <point x="918" y="1483"/>
      <point x="1121" y="1375"/>
      <point x="1121" y="1151" type="curve" smooth="yes"/>
      <point x="1121" y="1135"/>
      <point x="1120" y="1120"/>
      <point x="1118" y="1103" type="curve" smooth="yes"/>
      <point x="1100" y="957"/>
      <point x="1000" y="794"/>
      <point x="804" y="765" type="curve"/>
      <point x="978" y="732"/>
      <point x="1070" y="609"/>
      <point x="1070" y="460" type="curve" smooth="yes"/>
      <point x="1070" y="445"/>
      <point x="1069" y="429"/>
      <point x="1067" y="413" type="curve" smooth="yes"/>
      <point x="1033" y="138"/>
      <point x="788" y="-23"/>
    </contour>
    <contour>
      <point x="190.894" y="290.802" type="curve" smooth="yes"/>
      <point x="191" y="291" type="line" smooth="yes"/>
      <point x="190.406" y="291.297"/>
      <point x="190.38" y="291.216"/>
    </contour>
  </outline>
</glyph>
<glyph name="four" format="1">
  <advance width="1272"/>
  <unicode hex="0034"/>
  <outline>
    <contour>
      <point x="370" y="580" type="curve"/>
      <point x="710" y="580" type="line"/>
      <point x="779" y="1134" type="line"/>
      <point x="641" y="951"/>
      <point x="506" y="765"/>
    </contour>
    <contour>
      <point x="635" y="0" type="line"/>
      <point x="682" y="381" type="line"/>
      <point x="65" y="381" type="line"/>
      <point x="88" y="570" type="line"/>
      <point x="780" y="1456" type="line"/>
      <point x="1066" y="1456" type="line"/>
      <point x="958" y="580" type="line"/>
      <point x="1187" y="580" type="line"/>
      <point x="1164" y="381" type="line"/>
      <point x="940" y="381" type="line"/>
      <point x="893" y="0" type="line"/>
    </contour>
  </outline>
</glyph>
<glyph name="five" format="1">
  <advance width="1272"/>
  <unicode hex="0035"/>
  <outline>
    <contour>
      <point x="858" y="524" type="curve" smooth="yes"/>
      <point x="858" y="640"/>
      <point x="801" y="735"/>
      <point x="694" y="735" type="curve" smooth="yes"/>
      <point x="627" y="735"/>
      <point x="561" y="720"/>
      <point x="520" y="670" type="curve"/>
      <point x="271" y="704" type="line"/>
      <point x="363" y="1456" type="line"/>
      <point x="1172" y="1456" type="line"/>
      <point x="1144" y="1239" type="line"/>
      <point x="559" y="1239" type="line"/>
      <point x="502" y="866" type="line"/>
      <point x="569" y="941"/>
      <point x="670" y="960"/>
      <point x="773" y="960" type="curve" smooth="yes"/>
      <point x="971" y="960"/>
      <point x="1122" y="787"/>
      <point x="1122" y="545" type="curve" smooth="yes"/>
      <point x="1122" y="165"/>
      <point x="807" y="-23"/>
      <point x="531" y="-23" type="curve" smooth="yes"/>
      <point x="368" y="-23"/>
      <point x="205" y="44"/>
      <point x="95" y="177" type="curve"/>
      <point x="251" y="367" type="line"/>
      <point x="332" y="251"/>
      <point x="447" y="194"/>
      <point x="553" y="194" type="curve" smooth="yes"/>
      <point x="702" y="194"/>
      <point x="858" y="306"/>
    </contour>
  </outline>
</glyph>
<glyph name="six" format="1">
  <advance width="1272"/>
  <unicode hex="0036"/>
  <outline>
    <contour>
      <point x="894" y="529" type="curve" smooth="yes"/>
      <point x="894" y="658"/>
      <point x="830" y="754"/>
      <point x="698" y="754" type="curve" smooth="yes"/>
      <point x="527" y="754"/>
      <point x="399" y="617"/>
      <point x="399" y="428" type="curve" smooth="yes"/>
      <point x="399" y="280"/>
      <point x="508" y="194"/>
      <point x="614" y="194" type="curve" smooth="yes"/>
      <point x="777" y="194"/>
      <point x="894" y="340"/>
    </contour>
    <contour>
      <point x="832" y="1483" type="curve" smooth="yes"/>
      <point x="981" y="1483"/>
      <point x="1102" y="1441"/>
      <point x="1186" y="1353" type="curve"/>
      <point x="1079" y="1164" type="line"/>
      <point x="1000" y="1233"/>
      <point x="911" y="1266"/>
      <point x="808" y="1266" type="curve" smooth="yes"/>
      <point x="644" y="1266"/>
      <point x="500" y="1110"/>
      <point x="443" y="885" type="curve" smooth="yes"/>
      <point x="438" y="861"/>
      <point x="434" y="835"/>
      <point x="430" y="810" type="curve"/>
      <point x="524" y="926"/>
      <point x="637" y="962"/>
      <point x="738" y="962" type="curve" smooth="yes"/>
      <point x="1000" y="962"/>
      <point x="1158" y="807"/>
      <point x="1158" y="556" type="curve" smooth="yes"/>
      <point x="1158" y="530"/>
      <point x="1156" y="503"/>
      <point x="1153" y="476" type="curve" smooth="yes"/>
      <point x="1117" y="191"/>
      <point x="899" y="-23"/>
      <point x="595" y="-23" type="curve" smooth="yes"/>
      <point x="285" y="-23"/>
      <point x="137" y="194"/>
      <point x="137" y="532" type="curve" smooth="yes"/>
      <point x="137" y="1044"/>
      <point x="406" y="1483"/>
    </contour>
  </outline>
</glyph>
<glyph name="seven" format="1">
  <advance width="1272"/>
  <unicode hex="0037"/>
  <outline>
    <contour>
      <point x="224" y="0" type="line"/>
      <point x="928" y="1248" type="line"/>
      <point x="209" y="1248" type="line"/>
      <point x="234" y="1456" type="line"/>
      <point x="1247" y="1456" type="line"/>
      <point x="1224" y="1262" type="line"/>
      <point x="496" y="0" type="line"/>
    </contour>
  </outline>
</glyph>
<glyph name="eight" format="1">
  <advance width="1274"/>
  <unicode hex="0038"/>
  <outline>
    <contour>
      <point x="465" y="1056" type="curve" smooth="yes"/>
      <point x="465" y="961"/>
      <point x="534" y="890"/>
      <point x="649" y="858" type="curve"/>
      <point x="784" y="896"/>
      <point x="872" y="976"/>
      <point x="888" y="1095" type="curve" smooth="yes"/>
      <point x="889" y="1102"/>
      <point x="889" y="1108"/>
      <point x="889" y="1114" type="curve" smooth="yes"/>
      <point x="889" y="1207"/>
      <point x="807" y="1260"/>
      <point x="698" y="1260" type="curve" smooth="yes"/>
      <point x="568" y="1260"/>
      <point x="465" y="1197"/>
    </contour>
    <contour>
      <point x="570" y="199" type="curve" smooth="yes"/>
      <point x="714" y="199"/>
      <point x="816" y="264"/>
      <point x="835" y="413" type="curve" smooth="yes"/>
      <point x="836" y="421"/>
      <point x="836" y="429"/>
      <point x="836" y="437" type="curve" smooth="yes"/>
      <point x="836" y="543"/>
      <point x="750" y="642"/>
      <point x="634" y="674" type="curve"/>
      <point x="482" y="641"/>
      <point x="357" y="532"/>
      <point x="357" y="374" type="curve" smooth="yes"/>
      <point x="357" y="260"/>
      <point x="438" y="199"/>
    </contour>
    <contour>
      <point x="890" y="761" type="curve"/>
      <point x="1007" y="698"/>
      <point x="1093" y="571"/>
      <point x="1093" y="429" type="curve" smooth="yes"/>
      <point x="1093" y="415"/>
      <point x="1092" y="401"/>
      <point x="1090" y="387" type="curve" smooth="yes"/>
      <point x="1056" y="121"/>
      <point x="804" y="-23"/>
      <point x="547" y="-23" type="curve" smooth="yes"/>
      <point x="284" y="-23"/>
      <point x="94" y="107"/>
      <point x="94" y="340" type="curve" smooth="yes"/>
      <point x="94" y="358"/>
      <point x="95" y="376"/>
      <point x="97" y="395" type="curve" smooth="yes"/>
      <point x="118" y="558"/>
      <point x="228" y="689"/>
      <point x="390" y="764" type="curve"/>
      <point x="284" y="828"/>
      <point x="211" y="921"/>
      <point x="211" y="1051" type="curve" smooth="yes"/>
      <point x="211" y="1066"/>
      <point x="212" y="1083"/>
      <point x="214" y="1099" type="curve" smooth="yes"/>
      <point x="243" y="1342"/>
      <point x="458" y="1483"/>
      <point x="724" y="1483" type="curve" smooth="yes"/>
      <point x="991" y="1483"/>
      <point x="1148" y="1357"/>
      <point x="1148" y="1145" type="curve" smooth="yes"/>
      <point x="1148" y="949"/>
      <point x="1043" y="831"/>
    </contour>
  </outline>
</glyph>
<glyph name="nine" format="1">
  <advance width="1272"/>
  <unicode hex="0039"/>
  <outline>
    <contour>
      <point x="394" y="947" type="curve" smooth="yes"/>
      <point x="394" y="820"/>
      <point x="459" y="728"/>
      <point x="601" y="728" type="curve" smooth="yes"/>
      <point x="751" y="728"/>
      <point x="874" y="823"/>
      <point x="898" y="1016" type="curve" smooth="yes"/>
      <point x="899" y="1028"/>
      <point x="900" y="1040"/>
      <point x="900" y="1051" type="curve" smooth="yes"/>
      <point x="900" y="1170"/>
      <point x="825" y="1266"/>
      <point x="686" y="1266" type="curve" smooth="yes"/>
      <point x="518" y="1266"/>
      <point x="394" y="1137"/>
    </contour>
    <contour>
      <point x="464" y="-26" type="curve" smooth="yes"/>
      <point x="355" y="-26"/>
      <point x="230" y="9"/>
      <point x="101" y="77" type="curve"/>
      <point x="218" y="283" type="line"/>
      <point x="293" y="229"/>
      <point x="384" y="196"/>
      <point x="472" y="196" type="curve" smooth="yes"/>
      <point x="645" y="196"/>
      <point x="817" y="317"/>
      <point x="855" y="629" type="curve" smooth="yes"/>
      <point x="858" y="655" type="line"/>
      <point x="777" y="550"/>
      <point x="655" y="517"/>
      <point x="550" y="517" type="curve" smooth="yes"/>
      <point x="291" y="517"/>
      <point x="136" y="676"/>
      <point x="136" y="917" type="curve" smooth="yes"/>
      <point x="136" y="941"/>
      <point x="138" y="966"/>
      <point x="141" y="991" type="curve" smooth="yes"/>
      <point x="176" y="1271"/>
      <point x="396" y="1483"/>
      <point x="702" y="1483" type="curve" smooth="yes"/>
      <point x="982" y="1483"/>
      <point x="1138" y="1303"/>
      <point x="1138" y="951" type="curve" smooth="yes"/>
      <point x="1138" y="895"/>
      <point x="1134" y="835"/>
      <point x="1126" y="771" type="curve" smooth="yes"/>
      <point x="1069" y="305"/>
      <point x="824" y="-26"/>
    </contour>
  </outline>
</glyph>
<glyph name="semicolon" format="1">
  <advance width="539"/>
  <unicode hex="003B"/>
  <outline>
    <contour>
      <point x="232" y="900" type="line"/>
      <point x="265" y="1171" type="line"/>
      <point x="517" y="1171" type="line"/>
      <point x="484" y="900" type="line"/>
    </contour>
    <contour>
      <point x="-21" y="-229" type="line"/>
      <point x="148" y="268" type="line"/>
      <point x="429" y="268" type="line"/>
      <point x="190" y="-229" type="line"/>
    </contour>
  </outline>
</glyph>
<glyph name="less" format="1">
  <advance width="1416"/>
  <unicode hex="003C"/>
  <outline>
    <contour>
      <point x="1132" y="36" type="line"/>
      <point x="141" y="509" type="line"/>
      <point x="154" y="624" type="line"/>
      <point x="1267" y="1115" type="line"/>
      <point x="1240" y="888" type="line"/>
      <point x="476" y="569" type="line"/>
      <point x="1159" y="259" type="line"/>
    </contour>
  </outline>
</glyph>
<glyph name="equal" format="1">
  <advance width="1479"/>
  <unicode hex="003D"/>
  <outline>
    <contour>
      <point x="229" y="667" type="line"/>
      <point x="255" y="868" type="line"/>
      <point x="1298" y="868" type="line"/>
      <point x="1273" y="667" type="line"/>
    </contour>
    <contour>
      <point x="179" y="261" type="line"/>
      <point x="204" y="461" type="line"/>
      <point x="1250" y="461" type="line"/>
      <point x="1224" y="261" type="line"/>
    </contour>
  </outline>
</glyph>
<glyph name="greater" format="1">
  <advance width="1418"/>
  <unicode hex="003E"/>
  <outline>
    <contour>
      <point x="146" y="39" type="line"/>
      <point x="176" y="272" type="line"/>
      <point x="933" y="573" type="line"/>
      <point x="257" y="897" type="line"/>
      <point x="286" y="1123" type="line"/>
      <point x="1274" y="624" type="line"/>
      <point x="1259" y="500" type="line"/>
    </contour>
  </outline>
</glyph>
<glyph name="question" format="1">
  <advance width="1018"/>
  <unicode hex="003F"/>
  <outline>
    <contour>
      <point x="168" y="0" type="line"/>
      <point x="201" y="273" type="line"/>
      <point x="514" y="273" type="line"/>
      <point x="481" y="0" type="line"/>
    </contour>
    <contour>
      <point x="261" y="411" type="line"/>
      <point x="278" y="548" type="line" smooth="yes"/>
      <point x="309" y="810"/>
      <point x="672" y="920"/>
      <point x="696" y="1117" type="curve" smooth="yes"/>
      <point x="697" y="1125"/>
      <point x="697" y="1132"/>
      <point x="697" y="1139" type="curve" smooth="yes"/>
      <point x="697" y="1233"/>
      <point x="618" y="1268"/>
      <point x="513" y="1268" type="curve" smooth="yes"/>
      <point x="395" y="1268"/>
      <point x="255" y="1224"/>
      <point x="202" y="1202" type="curve"/>
      <point x="228" y="1413" type="line"/>
      <point x="244" y="1421"/>
      <point x="370" y="1485"/>
      <point x="562" y="1485" type="curve" smooth="yes"/>
      <point x="777" y="1485"/>
      <point x="958" y="1383"/>
      <point x="958" y="1173" type="curve" smooth="yes"/>
      <point x="958" y="820"/>
      <point x="503" y="769"/>
      <point x="467" y="476" type="curve"/>
      <point x="460" y="411" type="line"/>
    </contour>
  </outline>
</glyph>
<glyph name="at" format="1">
  <advance width="1814"/>
  <unicode hex="0040"/>
  <outline>
    <contour>
      <point x="826" y="448" type="curve" smooth="yes"/>
      <point x="964" y="448"/>
      <point x="1077" y="629"/>
      <point x="1100" y="817" type="curve" smooth="yes"/>
      <point x="1101" y="826"/>
      <point x="1102" y="834"/>
      <point x="1102" y="842" type="curve" smooth="yes"/>
      <point x="1102" y="915"/>
      <point x="1057" y="951"/>
      <point x="993" y="951" type="curve" smooth="yes"/>
      <point x="842" y="951"/>
      <point x="735" y="756"/>
      <point x="716" y="593" type="curve" smooth="yes"/>
      <point x="715" y="585"/>
      <point x="715" y="578"/>
      <point x="715" y="570" type="curve" smooth="yes"/>
      <point x="715" y="495"/>
      <point x="759" y="448"/>
    </contour>
    <contour>
      <point x="986" y="1136" type="curve" smooth="yes"/>
      <point x="1091" y="1136"/>
      <point x="1153" y="1102"/>
      <point x="1176" y="1022" type="curve"/>
      <point x="1207" y="1118" type="line"/>
      <point x="1425" y="1118" type="line"/>
      <point x="1278" y="644" type="line" smooth="yes"/>
      <point x="1243" y="531"/>
      <point x="1240" y="495"/>
      <point x="1237" y="466" type="curve" smooth="yes"/>
      <point x="1236" y="461"/>
      <point x="1236" y="456"/>
      <point x="1236" y="450" type="curve" smooth="yes"/>
      <point x="1236" y="418"/>
      <point x="1247" y="377"/>
      <point x="1282" y="377" type="curve" smooth="yes"/>
      <point x="1358" y="377"/>
      <point x="1528" y="540"/>
      <point x="1559" y="798" type="curve" smooth="yes"/>
      <point x="1562" y="825"/>
      <point x="1564" y="851"/>
      <point x="1564" y="876" type="curve" smooth="yes"/>
      <point x="1564" y="1186"/>
      <point x="1313" y="1320"/>
      <point x="1053" y="1320" type="curve" smooth="yes"/>
      <point x="689" y="1320"/>
      <point x="363" y="1114"/>
      <point x="307" y="665" type="curve" smooth="yes"/>
      <point x="303" y="634"/>
      <point x="301" y="604"/>
      <point x="301" y="575" type="curve" smooth="yes"/>
      <point x="301" y="221"/>
      <point x="518" y="56"/>
      <point x="885" y="56" type="curve" smooth="yes"/>
      <point x="1042" y="56"/>
      <point x="1210" y="101"/>
      <point x="1374" y="188" type="curve"/>
      <point x="1441" y="70" type="line"/>
      <point x="1262" y="-45"/>
      <point x="1052" y="-101"/>
      <point x="846" y="-101" type="curve" smooth="yes"/>
      <point x="407" y="-101"/>
      <point x="95" y="150"/>
      <point x="95" y="559" type="curve" smooth="yes"/>
      <point x="95" y="593"/>
      <point x="98" y="629"/>
      <point x="102" y="665" type="curve" smooth="yes"/>
      <point x="165" y="1175"/>
      <point x="591" y="1483"/>
      <point x="1063" y="1483" type="curve" smooth="yes"/>
      <point x="1451" y="1483"/>
      <point x="1726" y="1241"/>
      <point x="1726" y="882" type="curve" smooth="yes"/>
      <point x="1726" y="853"/>
      <point x="1725" y="823"/>
      <point x="1721" y="793" type="curve" smooth="yes"/>
      <point x="1690" y="541"/>
      <point x="1495" y="254"/>
      <point x="1288" y="254" type="curve" smooth="yes"/>
      <point x="1156" y="254"/>
      <point x="1085" y="339"/>
      <point x="1085" y="439" type="curve" smooth="yes"/>
      <point x="1085" y="447"/>
      <point x="1086" y="455"/>
      <point x="1087" y="464" type="curve"/>
      <point x="1038" y="351"/>
      <point x="934" y="256"/>
      <point x="770" y="256" type="curve" smooth="yes"/>
      <point x="624" y="256"/>
      <point x="470" y="358"/>
      <point x="470" y="570" type="curve" smooth="yes"/>
      <point x="470" y="917"/>
      <point x="791" y="1136"/>
    </contour>
  </outline>
</glyph>
<glyph name="A" format="1">
  <advance width="1458"/>
  <unicode hex="0041"/>
  <outline>
    <contour>
      <point x="507" y="592" type="curve"/>
      <point x="897" y="592" type="line"/>
      <point x="857" y="782"/>
      <point x="815" y="971"/>
      <point x="773" y="1159" type="curve"/>
      <point x="685" y="969"/>
      <point x="596" y="780"/>
    </contour>
    <contour>
      <point x="-77" y="0" type="line"/>
      <point x="686" y="1456" type="line"/>
      <point x="944" y="1456" type="line"/>
      <point x="1356" y="0" type="line"/>
      <point x="1069" y="0" type="line"/>
      <point x="971" y="355" type="line"/>
      <point x="383" y="355" type="line"/>
      <point x="202" y="0" type="line"/>
    </contour>
  </outline>
</glyph>
<glyph name="B" format="1">
  <advance width="1367"/>
  <unicode hex="0042"/>
  <outline>
    <contour>
      <point x="960" y="1085" type="curve" smooth="yes"/>
      <point x="960" y="1209"/>
      <point x="853" y="1238"/>
      <point x="671" y="1238" type="curve" smooth="yes"/>
      <point x="507" y="1238" type="line"/>
      <point x="459" y="852" type="line"/>
      <point x="676" y="852" type="line" smooth="yes"/>
      <point x="812" y="852"/>
      <point x="960" y="906"/>
    </contour>
    <contour>
      <point x="950" y="474" type="curve" smooth="yes"/>
      <point x="950" y="605"/>
      <point x="867" y="646"/>
      <point x="660" y="646" type="curve" smooth="yes"/>
      <point x="437" y="646" type="line"/>
      <point x="384" y="217" type="line"/>
      <point x="613" y="217" type="line" smooth="yes"/>
      <point x="833" y="217"/>
      <point x="950" y="293"/>
    </contour>
    <contour>
      <point x="101" y="0" type="line"/>
      <point x="279" y="1456" type="line"/>
      <point x="682" y="1456" type="line" smooth="yes"/>
      <point x="919" y="1456"/>
      <point x="1237" y="1432"/>
      <point x="1237" y="1139" type="curve" smooth="yes"/>
      <point x="1237" y="1121"/>
      <point x="1235" y="1103"/>
      <point x="1233" y="1083" type="curve" smooth="yes"/>
      <point x="1217" y="957"/>
      <point x="1152" y="842"/>
      <point x="1001" y="772" type="curve"/>
      <point x="1154" y="730"/>
      <point x="1220" y="616"/>
      <point x="1220" y="475" type="curve" smooth="yes"/>
      <point x="1220" y="454"/>
      <point x="1219" y="433"/>
      <point x="1216" y="411" type="curve" smooth="yes"/>
      <point x="1191" y="195"/>
      <point x="997" y="0"/>
      <point x="632" y="0" type="curve" smooth="yes"/>
    </contour>
  </outline>
</glyph>
<glyph name="C" format="1">
  <advance width="1436"/>
  <unicode hex="0043"/>
  <outline>
    <contour>
      <point x="367" y="642" type="curve" smooth="yes"/>
      <point x="367" y="365"/>
      <point x="540" y="197"/>
      <point x="786" y="197" type="curve" smooth="yes"/>
      <point x="914" y="197"/>
      <point x="1056" y="234"/>
      <point x="1206" y="344" type="curve"/>
      <point x="1267" y="143" type="line"/>
      <point x="1095" y="21"/>
      <point x="919" y="-22"/>
      <point x="743" y="-22" type="curve" smooth="yes"/>
      <point x="395" y="-22"/>
      <point x="98" y="200"/>
      <point x="98" y="612" type="curve" smooth="yes"/>
      <point x="98" y="649"/>
      <point x="100" y="687"/>
      <point x="105" y="727" type="curve" smooth="yes"/>
      <point x="168" y="1236"/>
      <point x="561" y="1483"/>
      <point x="907" y="1483" type="curve" smooth="yes"/>
      <point x="1073" y="1483"/>
      <point x="1236" y="1446"/>
      <point x="1374" y="1326" type="curve"/>
      <point x="1254" y="1149" type="line"/>
      <point x="1129" y="1243"/>
      <point x="1014" y="1264"/>
      <point x="902" y="1264" type="curve" smooth="yes"/>
      <point x="637" y="1264"/>
      <point x="367" y="1024"/>
    </contour>
  </outline>
</glyph>
<glyph name="D" format="1">
  <advance width="1571"/>
  <unicode hex="0044"/>
  <outline>
    <contour>
      <point x="101" y="0" type="line"/>
      <point x="279" y="1456" type="line"/>
      <point x="685" y="1456" type="line" smooth="yes"/>
      <point x="1224" y="1456"/>
      <point x="1474" y="1238"/>
      <point x="1474" y="859" type="curve" smooth="yes"/>
      <point x="1474" y="820"/>
      <point x="1471" y="779"/>
      <point x="1466" y="737" type="curve" smooth="yes"/>
      <point x="1406" y="255"/>
      <point x="1087" y="0"/>
      <point x="548" y="0" type="curve" smooth="yes"/>
    </contour>
    <contour>
      <point x="382" y="218" type="line"/>
      <point x="587" y="218" type="line" smooth="yes"/>
      <point x="937" y="218"/>
      <point x="1156" y="394"/>
      <point x="1198" y="738" type="curve" smooth="yes"/>
      <point x="1202" y="769"/>
      <point x="1204" y="798"/>
      <point x="1204" y="826" type="curve" smooth="yes"/>
      <point x="1204" y="1089"/>
      <point x="1041" y="1238"/>
      <point x="682" y="1238" type="curve" smooth="yes"/>
      <point x="507" y="1238" type="line"/>
    </contour>
  </outline>
</glyph>
<glyph name="E" format="1">
  <advance width="1249"/>
  <unicode hex="0045"/>
  <outline>
    <contour>
      <point x="101" y="0" type="line"/>
      <point x="279" y="1456" type="line"/>
      <point x="1198" y="1456" type="line"/>
      <point x="1172" y="1238" type="line"/>
      <point x="507" y="1238" type="line"/>
      <point x="459" y="849" type="line"/>
      <point x="1088" y="849" type="line"/>
      <point x="1060" y="630" type="line"/>
      <point x="434" y="630" type="line"/>
      <point x="384" y="218" type="line"/>
      <point x="1075" y="218" type="line"/>
      <point x="1049" y="0" type="line"/>
    </contour>
  </outline>
</glyph>
<glyph name="G" format="1">
  <advance width="1538"/>
  <unicode hex="0047"/>
  <outline>
    <contour>
      <point x="759" y="-23" type="curve" smooth="yes"/>
      <point x="318" y="-23"/>
      <point x="94" y="213"/>
      <point x="94" y="580" type="curve" smooth="yes"/>
      <point x="94" y="620"/>
      <point x="97" y="661"/>
      <point x="102" y="704" type="curve" smooth="yes"/>
      <point x="153" y="1120"/>
      <point x="468" y="1483"/>
      <point x="969" y="1483" type="curve" smooth="yes"/>
      <point x="1263" y="1483"/>
      <point x="1380" y="1386"/>
      <point x="1437" y="1338" type="curve"/>
      <point x="1313" y="1160" type="line"/>
      <point x="1256" y="1205"/>
      <point x="1149" y="1264"/>
      <point x="944" y="1264" type="curve" smooth="yes"/>
      <point x="594" y="1264"/>
      <point x="402" y="987"/>
      <point x="368" y="715" type="curve" smooth="yes"/>
      <point x="364" y="683"/>
      <point x="362" y="651"/>
      <point x="362" y="621" type="curve" smooth="yes"/>
      <point x="362" y="367"/>
      <point x="502" y="194"/>
      <point x="797" y="194" type="curve" smooth="yes"/>
      <point x="878" y="194"/>
      <point x="967" y="208"/>
      <point x="1051" y="232" type="curve"/>
      <point x="1094" y="576" type="line"/>
      <point x="754" y="576" type="line"/>
      <point x="779" y="793" type="line"/>
      <point x="1377" y="793" type="line"/>
      <point x="1291" y="88" type="line"/>
      <point x="1097" y="6"/>
      <point x="927" y="-23"/>
    </contour>
  </outline>
</glyph>
<glyph name="H" format="1">
  <advance width="1572"/>
  <unicode hex="0048"/>
  <outline>
    <contour>
      <point x="101" y="0" type="line"/>
      <point x="279" y="1456" type="line"/>
      <point x="533" y="1456" type="line"/>
      <point x="460" y="857" type="line"/>
      <point x="1143" y="857" type="line"/>
      <point x="1216" y="1456" type="line"/>
      <point x="1470" y="1456" type="line"/>
      <point x="1292" y="0" type="line"/>
      <point x="1043" y="0" type="line"/>
      <point x="1122" y="637" type="line"/>
      <point x="439" y="637" type="line"/>
      <point x="360" y="0" type="line"/>
    </contour>
  </outline>
</glyph>
<glyph name="I" format="1">
  <advance width="586"/>
  <unicode hex="0049"/>
  <outline>
    <contour>
      <point x="71" y="0" type="line"/>
      <point x="249" y="1456" type="line"/>
      <point x="503" y="1456" type="line"/>
      <point x="325" y="0" type="line"/>
    </contour>
  </outline>
</glyph>
<glyph name="J" format="1">
  <advance width="1019"/>
  <unicode hex="004A"/>
  <outline>
    <contour>
      <point x="307" y="-331" type="curve" smooth="yes"/>
      <point x="222" y="-331"/>
      <point x="120" y="-314"/>
      <point x="-6" y="-267" type="curve"/>
      <point x="63" y="-74" type="line"/>
      <point x="166" y="-108"/>
      <point x="236" y="-118"/>
      <point x="287" y="-118" type="curve" smooth="yes"/>
      <point x="440" y="-118"/>
      <point x="504" y="-27"/>
      <point x="521" y="110" type="curve" smooth="yes"/>
      <point x="686" y="1456" type="line"/>
      <point x="940" y="1456" type="line"/>
      <point x="776" y="122" type="line" smooth="yes"/>
      <point x="740" y="-172"/>
      <point x="565" y="-331"/>
    </contour>
  </outline>
</glyph>
<glyph name="K" format="1">
  <advance width="1351"/>
  <unicode hex="004B"/>
  <outline>
    <contour>
      <point x="101" y="0" type="line"/>
      <point x="279" y="1456" type="line"/>
      <point x="533" y="1456" type="line"/>
      <point x="456" y="820" type="line"/>
      <point x="1094" y="1456" type="line"/>
      <point x="1411" y="1456" type="line"/>
      <point x="694" y="753" type="line"/>
      <point x="1282" y="0" type="line"/>
      <point x="952" y="0" type="line"/>
      <point x="438" y="651" type="line"/>
      <point x="358" y="0" type="line"/>
    </contour>
  </outline>
</glyph>
<glyph name="L" format="1">
  <advance width="1173"/>
  <unicode hex="004C"/>
  <outline>
    <contour>
      <point x="363" y="1026" type="move" name="caron.alt"/>
    </contour>
    <contour>
      <point x="101" y="0" type="line"/>
      <point x="279" y="1456" type="line"/>
      <point x="533" y="1456" type="line"/>
      <point x="382" y="218" type="line"/>
      <point x="1055" y="218" type="line"/>
      <point x="1029" y="0" type="line"/>
    </contour>
  </outline>
</glyph>
<glyph name="M" format="1">
  <advance width="1987"/>
  <unicode hex="004D"/>
  <outline>
    <contour>
      <point x="101" y="0" type="line"/>
      <point x="279" y="1456" type="line"/>
      <point x="577" y="1456" type="line"/>
      <point x="701" y="1079"/>
      <point x="823" y="701"/>
      <point x="948" y="326" type="curve"/>
      <point x="1165" y="699"/>
      <point x="1375" y="1079"/>
      <point x="1588" y="1456" type="curve"/>
      <point x="1886" y="1456" type="line"/>
      <point x="1708" y="0" type="line"/>
      <point x="1470" y="0" type="line"/>
      <point x="1598" y="1040" type="line"/>
      <point x="1394" y="698"/>
      <point x="1200" y="347"/>
      <point x="1001" y="0" type="curve"/>
      <point x="814" y="0" type="line"/>
      <point x="699" y="341"/>
      <point x="592" y="690"/>
      <point x="470" y="1023" type="curve"/>
      <point x="346" y="0" type="line"/>
    </contour>
  </outline>
</glyph>
<glyph name="N" format="1">
  <advance width="1630"/>
  <unicode hex="004E"/>
  <outline>
    <contour>
      <point x="101" y="0" type="line"/>
      <point x="279" y="1456" type="line"/>
      <point x="548" y="1456" type="line"/>
      <point x="751" y="1099"/>
      <point x="951" y="739"/>
      <point x="1157" y="384" type="curve"/>
      <point x="1287" y="1456" type="line"/>
      <point x="1529" y="1456" type="line"/>
      <point x="1351" y="0" type="line"/>
      <point x="1081" y="0" type="line"/>
      <point x="876" y="358"/>
      <point x="673" y="717"/>
      <point x="467" y="1074" type="curve"/>
      <point x="336" y="0" type="line"/>
    </contour>
  </outline>
</glyph>
<glyph name="O" format="1">
  <advance width="1671"/>
  <unicode hex="004F"/>
  <outline>
    <contour>
      <point x="748" y="-23" type="curve" smooth="yes"/>
      <point x="335" y="-23"/>
      <point x="98" y="221"/>
      <point x="98" y="608" type="curve" smooth="yes"/>
      <point x="98" y="649"/>
      <point x="101" y="691"/>
      <point x="106" y="735" type="curve" smooth="yes"/>
      <point x="161" y="1181"/>
      <point x="474" y="1483"/>
      <point x="935" y="1483" type="curve" smooth="yes"/>
      <point x="1337" y="1483"/>
      <point x="1573" y="1238"/>
      <point x="1573" y="858" type="curve" smooth="yes"/>
      <point x="1573" y="818"/>
      <point x="1570" y="777"/>
      <point x="1565" y="735" type="curve" smooth="yes"/>
      <point x="1509" y="275"/>
      <point x="1204" y="-23"/>
    </contour>
    <contour>
      <point x="373" y="616" type="curve" smooth="yes"/>
      <point x="373" y="346"/>
      <point x="503" y="194"/>
      <point x="768" y="194" type="curve" smooth="yes"/>
      <point x="1069" y="194"/>
      <point x="1247" y="392"/>
      <point x="1289" y="735" type="curve" smooth="yes"/>
      <point x="1294" y="775"/>
      <point x="1296" y="812"/>
      <point x="1296" y="848" type="curve" smooth="yes"/>
      <point x="1296" y="1111"/>
      <point x="1164" y="1266"/>
      <point x="904" y="1266" type="curve" smooth="yes"/>
      <point x="575" y="1266"/>
      <point x="373" y="1012"/>
    </contour>
  </outline>
</glyph>
<glyph name="Q" format="1">
  <advance width="1671"/>
  <unicode hex="0051"/>
  <outline>
    <component base="O"/>
    <contour>
      <point x="1143" y="-447" type="line"/>
      <point x="1143" y="-447"/>
      <point x="928" y="-189"/>
      <point x="828" y="68" type="curve"/>
      <point x="1055" y="113" type="line"/>
      <point x="1113" y="-54"/>
      <point x="1301" y="-297"/>
      <point x="1301" y="-297" type="curve"/>
    </contour>
  </outline>
</glyph>
<glyph name="R" format="1">
  <advance width="1388"/>
  <unicode hex="0052"/>
  <outline>
    <contour>
      <point x="997" y="1087" type="curve" smooth="yes"/>
      <point x="997" y="1209"/>
      <point x="922" y="1238"/>
      <point x="774" y="1238" type="curve" smooth="yes"/>
      <point x="504" y="1238" type="line"/>
      <point x="453" y="831" type="line"/>
      <point x="696" y="831" type="line" smooth="yes"/>
      <point x="860" y="831"/>
      <point x="997" y="889"/>
    </contour>
    <contour>
      <point x="101" y="0" type="line"/>
      <point x="279" y="1456" type="line"/>
      <point x="804" y="1456" type="line" smooth="yes"/>
      <point x="1080" y="1456"/>
      <point x="1270" y="1389"/>
      <point x="1270" y="1129" type="curve" smooth="yes"/>
      <point x="1270" y="1106"/>
      <point x="1268" y="1081"/>
      <point x="1265" y="1054" type="curve" smooth="yes"/>
      <point x="1245" y="902"/>
      <point x="1141" y="756"/>
      <point x="929" y="709" type="curve"/>
      <point x="997" y="668"/>
      <point x="1059" y="605"/>
      <point x="1093" y="481" type="curve" smooth="yes"/>
      <point x="1232" y="0" type="line"/>
      <point x="957" y="0" type="line"/>
      <point x="843" y="433" type="line" smooth="yes"/>
      <point x="806" y="574"/>
      <point x="762" y="616"/>
      <point x="631" y="616" type="curve" smooth="yes"/>
      <point x="431" y="616" type="line"/>
      <point x="355" y="0" type="line"/>
    </contour>
  </outline>
</glyph>
<glyph name="S" format="1">
  <advance width="1256"/>
  <unicode hex="0053"/>
  <outline>
    <contour>
      <point x="833" y="439" type="curve" smooth="yes"/>
      <point x="833" y="507"/>
      <point x="801" y="550"/>
      <point x="648" y="609" type="curve" smooth="yes"/>
      <point x="592" y="629"/>
      <point x="515" y="653"/>
      <point x="451" y="676" type="curve" smooth="yes"/>
      <point x="256" y="754"/>
      <point x="156" y="845"/>
      <point x="156" y="1020" type="curve" smooth="yes"/>
      <point x="156" y="1333"/>
      <point x="408" y="1483"/>
      <point x="711" y="1483" type="curve" smooth="yes"/>
      <point x="980" y="1483"/>
      <point x="1089" y="1433"/>
      <point x="1198" y="1315" type="curve"/>
      <point x="1046" y="1147" type="line"/>
      <point x="953" y="1250"/>
      <point x="819" y="1264"/>
      <point x="721" y="1264" type="curve" smooth="yes"/>
      <point x="555" y="1264"/>
      <point x="429" y="1210"/>
      <point x="429" y="1057" type="curve" smooth="yes"/>
      <point x="429" y="982"/>
      <point x="466" y="941"/>
      <point x="620" y="885" type="curve" smooth="yes"/>
      <point x="681" y="862"/>
      <point x="768" y="836"/>
      <point x="832" y="811" type="curve" smooth="yes"/>
      <point x="1027" y="729"/>
      <point x="1105" y="640"/>
      <point x="1105" y="476" type="curve" smooth="yes"/>
      <point x="1105" y="113"/>
      <point x="827" y="-23"/>
      <point x="531" y="-23" type="curve" smooth="yes"/>
      <point x="337" y="-23"/>
      <point x="138" y="36"/>
      <point x="43" y="143" type="curve"/>
      <point x="173" y="325" type="line"/>
      <point x="261" y="249"/>
      <point x="430" y="194"/>
      <point x="541" y="194" type="curve" smooth="yes"/>
      <point x="735" y="194"/>
      <point x="833" y="271"/>
    </contour>
  </outline>
</glyph>
<glyph name="T" format="1">
  <advance width="1181"/>
  <unicode hex="0054"/>
  <outline>
    <contour>
      <point x="371" y="0" type="line"/>
      <point x="523" y="1238" type="line"/>
      <point x="74" y="1238" type="line"/>
      <point x="100" y="1456" type="line"/>
      <point x="1259" y="1456" type="line"/>
      <point x="1233" y="1238" type="line"/>
      <point x="777" y="1238" type="line"/>
      <point x="625" y="0" type="line"/>
    </contour>
  </outline>
</glyph>
<glyph name="U" format="1">
  <advance width="1509"/>
  <unicode hex="0055"/>
  <outline>
    <contour>
      <point x="664" y="-23" type="curve" smooth="yes"/>
      <point x="255" y="-23"/>
      <point x="140" y="187"/>
      <point x="140" y="453" type="curve" smooth="yes"/>
      <point x="140" y="500"/>
      <point x="144" y="549"/>
      <point x="150" y="599" type="curve" smooth="yes"/>
      <point x="255" y="1456" type="line"/>
      <point x="509" y="1456" type="line"/>
      <point x="401" y="588" type="line" smooth="yes"/>
      <point x="397" y="554"/>
      <point x="395" y="524"/>
      <point x="395" y="495" type="curve" smooth="yes"/>
      <point x="395" y="263"/>
      <point x="524" y="194"/>
      <point x="691" y="194" type="curve" smooth="yes"/>
      <point x="883" y="194"/>
      <point x="1037" y="281"/>
      <point x="1074" y="589" type="curve" smooth="yes"/>
      <point x="1182" y="1456" type="line"/>
      <point x="1436" y="1456" type="line"/>
      <point x="1331" y="598" type="line" smooth="yes"/>
      <point x="1291" y="273"/>
      <point x="1153" y="-23"/>
    </contour>
  </outline>
</glyph>
<glyph name="V" format="1">
  <advance width="1393"/>
  <unicode hex="0056"/>
  <outline>
    <contour>
      <point x="482" y="0" type="line"/>
      <point x="106" y="1456" type="line"/>
      <point x="391" y="1456" type="line"/>
      <point x="479" y="1082"/>
      <point x="563" y="704"/>
      <point x="654" y="333" type="curve"/>
      <point x="838" y="705"/>
      <point x="1017" y="1082"/>
      <point x="1198" y="1456" type="curve"/>
      <point x="1465" y="1456" type="line"/>
      <point x="734" y="0" type="line"/>
    </contour>
  </outline>
</glyph>
<glyph name="W" format="1">
  <advance width="2096"/>
  <unicode hex="0057"/>
  <outline>
    <contour>
      <point x="339" y="0" type="line"/>
      <point x="101" y="1456" type="line"/>
      <point x="371" y="1456" type="line"/>
      <point x="425" y="1074"/>
      <point x="484" y="696"/>
      <point x="531" y="306" type="curve"/>
      <point x="684" y="700"/>
      <point x="857" y="1074"/>
      <point x="1022" y="1456" type="curve"/>
      <point x="1264" y="1456" type="line"/>
      <point x="1338" y="1072"/>
      <point x="1422" y="698"/>
      <point x="1483" y="301" type="curve"/>
      <point x="1621" y="691"/>
      <point x="1768" y="1072"/>
      <point x="1911" y="1456" type="curve"/>
      <point x="2173" y="1456" type="line"/>
      <point x="1589" y="0" type="line"/>
      <point x="1298" y="0" type="line"/>
      <point x="1093" y="1105" type="line"/>
      <point x="626" y="0" type="line"/>
    </contour>
  </outline>
</glyph>
<glyph name="X" format="1">
  <advance width="1407"/>
  <unicode hex="0058"/>
  <outline>
    <contour>
      <point x="-67" y="0" type="line"/>
      <point x="558" y="736" type="line"/>
      <point x="149" y="1456" type="line"/>
      <point x="466" y="1456" type="line"/>
      <point x="745" y="952" type="line"/>
      <point x="1165" y="1456" type="line"/>
      <point x="1460" y="1456" type="line"/>
      <point x="865" y="747" type="line"/>
      <point x="1292" y="0" type="line"/>
      <point x="976" y="0" type="line"/>
      <point x="677" y="532" type="line"/>
      <point x="237" y="0" type="line"/>
    </contour>
  </outline>
</glyph>
<glyph name="Y" format="1">
  <advance width="1280"/>
  <unicode hex="0059"/>
  <outline>
    <contour>
      <point x="416" y="0" type="line"/>
      <point x="484" y="563" type="line"/>
      <point x="75" y="1456" type="line"/>
      <point x="364" y="1456" type="line"/>
      <point x="642" y="789" type="line"/>
      <point x="1083" y="1456" type="line"/>
      <point x="1379" y="1456" type="line"/>
      <point x="738" y="564" type="line"/>
      <point x="670" y="0" type="line"/>
    </contour>
  </outline>
</glyph>
<glyph name="Z" format="1">
  <advance width="1202"/>
  <unicode hex="005A"/>
  <outline>
    <contour>
      <point x="-18" y="0" type="line"/>
      <point x="-1" y="136" type="line"/>
      <point x="823" y="1238" type="line"/>
      <point x="160" y="1238" type="line"/>
      <point x="186" y="1456" type="line"/>
      <point x="1200" y="1456" type="line"/>
      <point x="1185" y="1324" type="line"/>
      <point x="356" y="218" type="line"/>
      <point x="1047" y="218" type="line"/>
      <point x="1021" y="0" type="line"/>
    </contour>
  </outline>
</glyph>
<glyph name="bracketleft" format="1">
  <advance width="620"/>
  <unicode hex="005B"/>
  <outline>
    <contour>
      <point x="38" y="-158" type="line"/>
      <point x="241" y="1502" type="line"/>
      <point x="662" y="1502" type="line"/>
      <point x="639" y="1312" type="line"/>
      <point x="470" y="1312" type="line"/>
      <point x="314" y="32" type="line"/>
      <point x="483" y="32" type="line"/>
      <point x="460" y="-158" type="line"/>
    </contour>
  </outline>
</glyph>
<glyph name="backslash" format="1">
  <advance width="650"/>
  <unicode hex="005C"/>
  <outline>
    <contour>
      <point x="435" y="-112" type="line"/>
      <point x="-78" y="1456" type="line"/>
      <point x="197" y="1456" type="line"/>
      <point x="702" y="-112" type="line"/>
    </contour>
  </outline>
</glyph>
<glyph name="underscore" format="1">
  <advance width="1012"/>
  <unicode hex="005F"/>
  <outline>
    <contour>
      <point x="-25" y="-254" type="line"/>
      <point x="-2" y="-59" type="line"/>
      <point x="1037" y="-59" type="line"/>
      <point x="1014" y="-254" type="line"/>
    </contour>
  </outline>
</glyph>
<glyph name="grave" format="1">
  <advance width="610"/>
  <unicode hex="0060"/>
  <outline>
    <contour>
      <point x="319" y="1166" type="line"/>
      <point x="3" y="1455" type="line"/>
      <point x="321" y="1455" type="line"/>
      <point x="547" y="1166" type="line"/>
    </contour>
  </outline>
</glyph>
<glyph name="a" format="1">
  <advance width="1291"/>
  <unicode hex="0061"/>
  <outline>
    <contour>
      <point x="924" y="589" type="curve" smooth="yes"/>
      <point x="924" y="748"/>
      <point x="850" y="851"/>
      <point x="681" y="851" type="curve" smooth="yes"/>
      <point x="475" y="851"/>
      <point x="350" y="684"/>
      <point x="350" y="447" type="curve" smooth="yes"/>
      <point x="350" y="286"/>
      <point x="428" y="177"/>
      <point x="601" y="177" type="curve" smooth="yes"/>
      <point x="825" y="177"/>
      <point x="924" y="361"/>
    </contour>
    <contour>
      <point x="547" y="-23" type="curve" smooth="yes"/>
      <point x="236" y="-23"/>
      <point x="102" y="190"/>
      <point x="102" y="423" type="curve" smooth="yes"/>
      <point x="102" y="449"/>
      <point x="104" y="476"/>
      <point x="107" y="502" type="curve" smooth="yes"/>
      <point x="140" y="780"/>
      <point x="338" y="1052"/>
      <point x="691" y="1052" type="curve" smooth="yes"/>
      <point x="829" y="1052"/>
      <point x="910" y="1000"/>
      <point x="961" y="916" type="curve"/>
      <point x="974" y="1026" type="line"/>
      <point x="1217" y="1026" type="line"/>
      <point x="1091" y="0" type="line"/>
      <point x="842" y="0" type="line"/>
      <point x="859" y="140" type="line"/>
      <point x="792" y="57"/>
      <point x="687" y="-23"/>
    </contour>
  </outline>
</glyph>
<glyph name="b" format="1">
  <advance width="1291"/>
  <unicode hex="0062"/>
  <outline>
    <contour>
      <point x="903" y="580" type="curve" smooth="yes"/>
      <point x="903" y="734"/>
      <point x="836" y="851"/>
      <point x="682" y="851" type="curve" smooth="yes"/>
      <point x="485" y="851"/>
      <point x="353" y="672"/>
      <point x="353" y="454" type="curve" smooth="yes"/>
      <point x="353" y="304"/>
      <point x="427" y="177"/>
      <point x="592" y="177" type="curve" smooth="yes"/>
      <point x="799" y="177"/>
      <point x="903" y="370"/>
    </contour>
    <contour>
      <point x="613" y="-23" type="curve" smooth="yes"/>
      <point x="468" y="-23"/>
      <point x="359" y="51"/>
      <point x="322" y="127" type="curve"/>
      <point x="307" y="0" type="line"/>
      <point x="54" y="0" type="line"/>
      <point x="92" y="251"/>
      <point x="91" y="244"/>
      <point x="95" y="272" type="curve" smooth="yes"/>
      <point x="240" y="1457" type="line"/>
      <point x="487" y="1457" type="line"/>
      <point x="416" y="882" type="line"/>
      <point x="432" y="923"/>
      <point x="542" y="1052"/>
      <point x="759" y="1052" type="curve" smooth="yes"/>
      <point x="1022" y="1052"/>
      <point x="1166" y="870"/>
      <point x="1166" y="610" type="curve" smooth="yes"/>
      <point x="1166" y="235"/>
      <point x="895" y="-23"/>
    </contour>
  </outline>
</glyph>
<glyph name="d" format="1">
  <advance width="1267"/>
  <unicode hex="0064"/>
  <outline>
    <contour>
      <point x="1001" y="1026" type="move" name="caron.alt"/>
    </contour>
    <contour>
      <point x="864" y="584" type="curve" smooth="yes"/>
      <point x="864" y="736"/>
      <point x="800" y="851"/>
      <point x="642" y="851" type="curve" smooth="yes"/>
      <point x="439" y="851"/>
      <point x="339" y="659"/>
      <point x="339" y="439" type="curve" smooth="yes"/>
      <point x="339" y="295"/>
      <point x="399" y="177"/>
      <point x="561" y="177" type="curve" smooth="yes"/>
      <point x="767" y="177"/>
      <point x="864" y="374"/>
    </contour>
    <contour>
      <point x="485" y="-23" type="curve" smooth="yes"/>
      <point x="250" y="-23"/>
      <point x="77" y="146"/>
      <point x="77" y="421" type="curve" smooth="yes"/>
      <point x="77" y="449"/>
      <point x="78" y="478"/>
      <point x="82" y="508" type="curve" smooth="yes"/>
      <point x="117" y="795"/>
      <point x="310" y="1052"/>
      <point x="636" y="1052" type="curve" smooth="yes"/>
      <point x="796" y="1052"/>
      <point x="880" y="964"/>
      <point x="901" y="918" type="curve"/>
      <point x="967" y="1457" type="line"/>
      <point x="1214" y="1457" type="line"/>
      <point x="1069" y="274" type="line" smooth="yes"/>
      <point x="1066" y="254"/>
      <point x="1065" y="238"/>
      <point x="1044" y="0" type="curve"/>
      <point x="790" y="0" type="line"/>
      <point x="805" y="131" type="line"/>
      <point x="776" y="78"/>
      <point x="674" y="-23"/>
    </contour>
  </outline>
</glyph>
<glyph name="e" format="1">
  <advance width="1195"/>
  <unicode hex="0065"/>
  <outline>
    <contour>
      <point x="388" y="636" type="curve"/>
      <point x="897" y="636" type="line"/>
      <point x="893" y="784"/>
      <point x="810" y="861"/>
      <point x="691" y="861" type="curve" smooth="yes"/>
      <point x="546" y="861"/>
      <point x="437" y="773"/>
    </contour>
    <contour>
      <point x="1084" y="471" type="curve"/>
      <point x="364" y="471" type="line"/>
      <point x="363" y="458"/>
      <point x="363" y="447"/>
      <point x="363" y="435" type="curve" smooth="yes"/>
      <point x="363" y="253"/>
      <point x="478" y="177"/>
      <point x="647" y="177" type="curve" smooth="yes"/>
      <point x="758" y="177"/>
      <point x="870" y="213"/>
      <point x="985" y="287" type="curve"/>
      <point x="1030" y="107" type="line"/>
      <point x="892" y="19"/>
      <point x="762" y="-23"/>
      <point x="600" y="-23" type="curve" smooth="yes"/>
      <point x="280" y="-23"/>
      <point x="103" y="161"/>
      <point x="103" y="430" type="curve" smooth="yes"/>
      <point x="103" y="457"/>
      <point x="104" y="484"/>
      <point x="108" y="512" type="curve" smooth="yes"/>
      <point x="142" y="797"/>
      <point x="366" y="1052"/>
      <point x="700" y="1052" type="curve" smooth="yes"/>
      <point x="992" y="1052"/>
      <point x="1103" y="867"/>
      <point x="1103" y="626" type="curve" smooth="yes"/>
      <point x="1103" y="577"/>
      <point x="1103" y="508"/>
    </contour>
  </outline>
</glyph>
<glyph name="f" format="1">
  <advance width="820"/>
  <unicode hex="0066"/>
  <outline>
    <contour>
      <point x="170" y="0" type="line"/>
      <point x="275" y="860" type="line"/>
      <point x="84" y="860" type="line"/>
      <point x="105" y="1026" type="line"/>
      <point x="296" y="1026" type="line"/>
      <point x="301" y="1066" type="line" smooth="yes"/>
      <point x="337" y="1358"/>
      <point x="385" y="1485"/>
      <point x="784" y="1485" type="curve" smooth="yes"/>
      <point x="837" y="1485" type="line"/>
      <point x="805" y="1292" type="line"/>
      <point x="595" y="1292"/>
      <point x="572" y="1270"/>
      <point x="547" y="1069" type="curve"/>
      <point x="543" y="1026" type="line"/>
      <point x="774" y="1026" type="line"/>
      <point x="753" y="860" type="line"/>
      <point x="521" y="860" type="line"/>
      <point x="417" y="0" type="line"/>
    </contour>
  </outline>
</glyph>
<glyph name="g" format="1">
  <advance width="1235"/>
  <unicode hex="0067"/>
  <outline>
    <contour>
      <point x="387" y="439" type="curve" smooth="yes"/>
      <point x="387" y="285"/>
      <point x="453" y="187"/>
      <point x="610" y="187" type="curve" smooth="yes"/>
      <point x="813" y="187"/>
      <point x="885" y="360"/>
      <point x="904" y="516" type="curve" smooth="yes"/>
      <point x="907" y="542"/>
      <point x="909" y="568"/>
      <point x="909" y="592" type="curve" smooth="yes"/>
      <point x="909" y="743"/>
      <point x="846" y="851"/>
      <point x="696" y="851" type="curve" smooth="yes"/>
      <point x="495" y="851"/>
      <point x="387" y="654"/>
    </contour>
    <contour>
      <point x="488" y="-418" type="curve" smooth="yes"/>
      <point x="353" y="-418"/>
      <point x="226" y="-394"/>
      <point x="106" y="-348" type="curve"/>
      <point x="175" y="-134" type="line"/>
      <point x="293" y="-199"/>
      <point x="407" y="-212"/>
      <point x="496" y="-212" type="curve" smooth="yes"/>
      <point x="681" y="-212"/>
      <point x="810" y="-136"/>
      <point x="832" y="35" type="curve" smooth="yes"/>
      <point x="842" y="122" type="line"/>
      <point x="795" y="68"/>
      <point x="713" y="0"/>
      <point x="571" y="0" type="curve" smooth="yes"/>
      <point x="296" y="0"/>
      <point x="127" y="165"/>
      <point x="127" y="432" type="curve" smooth="yes"/>
      <point x="127" y="459"/>
      <point x="129" y="486"/>
      <point x="132" y="515" type="curve" smooth="yes"/>
      <point x="167" y="795"/>
      <point x="345" y="1052"/>
      <point x="680" y="1052" type="curve" smooth="yes"/>
      <point x="814" y="1052"/>
      <point x="901" y="990"/>
      <point x="940" y="916" type="curve"/>
      <point x="954" y="1026" type="line"/>
      <point x="1217" y="1026" type="line"/>
      <point x="1217" y="1026"/>
      <point x="1178" y="874"/>
      <point x="1154" y="682" type="curve" smooth="yes"/>
      <point x="1089" y="147" type="line" smooth="yes"/>
      <point x="1059" y="-95"/>
      <point x="952" y="-418"/>
    </contour>
  </outline>
</glyph>
<glyph name="h" format="1">
  <advance width="1219"/>
  <unicode hex="0068"/>
  <outline>
    <contour>
      <point x="54" y="0" type="line"/>
      <point x="234" y="1457" type="line"/>
      <point x="482" y="1457" type="line"/>
      <point x="412" y="893" type="line"/>
      <point x="478" y="993"/>
      <point x="636" y="1052"/>
      <point x="738" y="1052" type="curve" smooth="yes"/>
      <point x="1017" y="1052"/>
      <point x="1077" y="859"/>
      <point x="1077" y="686" type="curve" smooth="yes"/>
      <point x="1077" y="646"/>
      <point x="1074" y="606"/>
      <point x="1069" y="571" type="curve" smooth="yes"/>
      <point x="999" y="0" type="line"/>
      <point x="751" y="0" type="line"/>
      <point x="823" y="579" type="line" smooth="yes"/>
      <point x="827" y="611"/>
      <point x="829" y="639"/>
      <point x="829" y="665" type="curve" smooth="yes"/>
      <point x="829" y="800"/>
      <point x="775" y="851"/>
      <point x="677" y="851" type="curve" smooth="yes"/>
      <point x="543" y="851"/>
      <point x="394" y="743"/>
      <point x="378" y="618" type="curve" smooth="yes"/>
      <point x="302" y="0" type="line"/>
    </contour>
  </outline>
</glyph>
<glyph name="i" format="1">
  <advance width="562"/>
  <unicode hex="0069"/>
  <outline>
    <contour>
      <point x="263" y="1238" type="line"/>
      <point x="289" y="1456" type="line"/>
      <point x="529" y="1456" type="line"/>
      <point x="503" y="1238" type="line"/>
    </contour>
    <contour>
      <point x="112" y="0" type="line"/>
      <point x="238" y="1026" type="line"/>
      <point x="477" y="1026" type="line"/>
      <point x="351" y="0" type="line"/>
    </contour>
  </outline>
</glyph>
<glyph name="k" format="1">
  <advance width="1076"/>
  <unicode hex="006B"/>
  <outline>
    <contour>
      <point x="50" y="0" type="line"/>
      <point x="230" y="1457" type="line"/>
      <point x="478" y="1457" type="line"/>
      <point x="372" y="607" type="line"/>
      <point x="796" y="1026" type="line"/>
      <point x="1138" y="1026" type="line"/>
      <point x="589" y="530" type="line"/>
      <point x="1044" y="0" type="line"/>
      <point x="715" y="0" type="line"/>
      <point x="354" y="444" type="line"/>
      <point x="298" y="0" type="line"/>
    </contour>
  </outline>
</glyph>
<glyph name="l" format="1">
  <advance width="572"/>
  <unicode hex="006C"/>
  <outline>
    <contour>
      <point x="282" y="1026" type="move" name="caron.alt"/>
    </contour>
    <contour>
      <point x="111" y="0" type="line"/>
      <point x="290" y="1457" type="line"/>
      <point x="536" y="1457" type="line"/>
      <point x="356" y="0" type="line"/>
    </contour>
  </outline>
</glyph>
<glyph name="m" format="1">
  <advance width="1839"/>
  <unicode hex="006D"/>
  <outline>
    <contour>
      <point x="95" y="0" type="line"/>
      <point x="181" y="696" type="line" smooth="yes"/>
      <point x="203" y="872"/>
      <point x="197" y="955"/>
      <point x="202" y="1026" type="curve"/>
      <point x="463" y="1026" type="line"/>
      <point x="447" y="892" type="line"/>
      <point x="507" y="983"/>
      <point x="628" y="1052"/>
      <point x="754" y="1052" type="curve" smooth="yes"/>
      <point x="880" y="1052"/>
      <point x="992" y="993"/>
      <point x="1038" y="862" type="curve"/>
      <point x="1125" y="970"/>
      <point x="1240" y="1052"/>
      <point x="1394" y="1052" type="curve" smooth="yes"/>
      <point x="1622" y="1052"/>
      <point x="1724" y="920"/>
      <point x="1724" y="714" type="curve" smooth="yes"/>
      <point x="1724" y="687"/>
      <point x="1722" y="659"/>
      <point x="1719" y="629" type="curve" smooth="yes"/>
      <point x="1641" y="0" type="line"/>
      <point x="1393" y="0" type="line"/>
      <point x="1469" y="614" type="line" smooth="yes"/>
      <point x="1471" y="632"/>
      <point x="1473" y="651"/>
      <point x="1473" y="670" type="curve" smooth="yes"/>
      <point x="1473" y="758"/>
      <point x="1446" y="851"/>
      <point x="1350" y="851" type="curve" smooth="yes"/>
      <point x="1196" y="851"/>
      <point x="1081" y="708"/>
      <point x="1065" y="581" type="curve" smooth="yes"/>
      <point x="993" y="0" type="line"/>
      <point x="745" y="0" type="line"/>
      <point x="823" y="627" type="line" smooth="yes"/>
      <point x="825" y="644"/>
      <point x="826" y="661"/>
      <point x="826" y="680" type="curve" smooth="yes"/>
      <point x="826" y="761"/>
      <point x="802" y="851"/>
      <point x="692" y="851" type="curve" smooth="yes"/>
      <point x="550" y="851"/>
      <point x="434" y="741"/>
      <point x="420" y="623" type="curve" smooth="yes"/>
      <point x="343" y="0" type="line"/>
    </contour>
  </outline>
</glyph>
<glyph name="n" format="1">
  <advance width="1224"/>
  <unicode hex="006E"/>
  <outline>
    <contour>
      <point x="93" y="0" type="line"/>
      <point x="172" y="635" type="line" smooth="yes"/>
      <point x="197" y="839"/>
      <point x="199" y="975"/>
      <point x="199" y="1014" type="curve" smooth="yes"/>
      <point x="199" y="1026" type="line"/>
      <point x="462" y="1026" type="line"/>
      <point x="445" y="889" type="line"/>
      <point x="535" y="1003"/>
      <point x="680" y="1052"/>
      <point x="779" y="1052" type="curve" smooth="yes"/>
      <point x="979" y="1052"/>
      <point x="1110" y="966"/>
      <point x="1110" y="703" type="curve" smooth="yes"/>
      <point x="1110" y="667"/>
      <point x="1107" y="628"/>
      <point x="1102" y="585" type="curve" smooth="yes"/>
      <point x="1029" y="0" type="line"/>
      <point x="781" y="0" type="line"/>
      <point x="855" y="602" type="line" smooth="yes"/>
      <point x="859" y="631"/>
      <point x="860" y="657"/>
      <point x="860" y="681" type="curve" smooth="yes"/>
      <point x="860" y="804"/>
      <point x="811" y="851"/>
      <point x="703" y="851" type="curve" smooth="yes"/>
      <point x="611" y="851"/>
      <point x="435" y="768"/>
      <point x="418" y="614" type="curve" smooth="yes"/>
      <point x="341" y="0" type="line"/>
    </contour>
  </outline>
</glyph>
<glyph name="o" format="1">
  <advance width="1286"/>
  <unicode hex="006F"/>
  <outline>
    <contour>
      <point x="582" y="-23" type="curve" smooth="yes"/>
      <point x="251" y="-23"/>
      <point x="103" y="180"/>
      <point x="103" y="429" type="curve" smooth="yes"/>
      <point x="103" y="457"/>
      <point x="104" y="485"/>
      <point x="108" y="513" type="curve" smooth="yes"/>
      <point x="143" y="805"/>
      <point x="353" y="1052"/>
      <point x="713" y="1052" type="curve" smooth="yes"/>
      <point x="1043" y="1052"/>
      <point x="1184" y="857"/>
      <point x="1184" y="604" type="curve" smooth="yes"/>
      <point x="1184" y="574"/>
      <point x="1182" y="543"/>
      <point x="1178" y="511" type="curve" smooth="yes"/>
      <point x="1143" y="232"/>
      <point x="941" y="-23"/>
    </contour>
    <contour>
      <point x="925" y="586" type="curve" smooth="yes"/>
      <point x="925" y="735"/>
      <point x="854" y="851"/>
      <point x="686" y="851" type="curve" smooth="yes"/>
      <point x="476" y="851"/>
      <point x="362" y="668"/>
      <point x="362" y="448" type="curve" smooth="yes"/>
      <point x="362" y="300"/>
      <point x="428" y="177"/>
      <point x="601" y="177" type="curve" smooth="yes"/>
      <point x="821" y="177"/>
      <point x="925" y="371"/>
    </contour>
  </outline>
</glyph>
<glyph name="p" format="1">
  <advance width="1273"/>
  <unicode hex="0070"/>
  <outline>
    <contour>
      <point x="937" y="587" type="curve" smooth="yes"/>
      <point x="937" y="736"/>
      <point x="872" y="851"/>
      <point x="714" y="851" type="curve" smooth="yes"/>
      <point x="515" y="851"/>
      <point x="409" y="665"/>
      <point x="409" y="447" type="curve" smooth="yes"/>
      <point x="409" y="299"/>
      <point x="469" y="177"/>
      <point x="632" y="177" type="curve" smooth="yes"/>
      <point x="840" y="177"/>
      <point x="937" y="373"/>
    </contour>
    <contour>
      <point x="71" y="-395" type="line"/>
      <point x="203" y="681" type="line" smooth="yes"/>
      <point x="216" y="789"/>
      <point x="221" y="918"/>
      <point x="227" y="1026" type="curve"/>
      <point x="490" y="1026" type="line"/>
      <point x="472" y="879" type="line"/>
      <point x="492" y="940"/>
      <point x="620" y="1052"/>
      <point x="809" y="1052" type="curve" smooth="yes"/>
      <point x="1061" y="1052"/>
      <point x="1197" y="849"/>
      <point x="1197" y="607" type="curve" smooth="yes"/>
      <point x="1197" y="580"/>
      <point x="1195" y="553"/>
      <point x="1192" y="525" type="curve" smooth="yes"/>
      <point x="1157" y="248"/>
      <point x="959" y="-23"/>
      <point x="664" y="-23" type="curve" smooth="yes"/>
      <point x="483" y="-23"/>
      <point x="386" y="89"/>
      <point x="382" y="141" type="curve"/>
      <point x="316" y="-395" type="line"/>
    </contour>
  </outline>
</glyph>
<glyph name="q" format="1">
  <advance width="1250"/>
  <unicode hex="0071"/>
  <outline>
    <contour>
      <point x="909" y="585" type="curve" smooth="yes"/>
      <point x="909" y="736"/>
      <point x="843" y="851"/>
      <point x="685" y="851" type="curve" smooth="yes"/>
      <point x="486" y="851"/>
      <point x="381" y="663"/>
      <point x="381" y="444" type="curve" smooth="yes"/>
      <point x="381" y="298"/>
      <point x="440" y="177"/>
      <point x="604" y="177" type="curve" smooth="yes"/>
      <point x="812" y="177"/>
      <point x="909" y="374"/>
    </contour>
    <contour>
      <point x="779" y="-395" type="line"/>
      <point x="838" y="82" type="line"/>
      <point x="746" y="15"/>
      <point x="638" y="-23"/>
      <point x="544" y="-23" type="curve" smooth="yes"/>
      <point x="250" y="-23"/>
      <point x="123" y="194"/>
      <point x="123" y="438" type="curve" smooth="yes"/>
      <point x="123" y="468"/>
      <point x="125" y="498"/>
      <point x="129" y="528" type="curve" smooth="yes"/>
      <point x="163" y="803"/>
      <point x="362" y="1052"/>
      <point x="678" y="1052" type="curve" smooth="yes"/>
      <point x="768" y="1052"/>
      <point x="870" y="1011"/>
      <point x="943" y="916" type="curve"/>
      <point x="956" y="1026" type="line"/>
      <point x="1209" y="1026" type="line"/>
      <point x="1188" y="918"/>
      <point x="1175" y="830"/>
      <point x="1162" y="730" type="curve" smooth="yes"/>
      <point x="1024" y="-395" type="line"/>
    </contour>
  </outline>
</glyph>
<glyph name="r" format="1">
  <advance width="780"/>
  <unicode hex="0072"/>
  <outline>
    <contour>
      <point x="97" y="0" type="line"/>
      <point x="192" y="766" type="line" smooth="yes"/>
      <point x="202" y="848"/>
      <point x="204" y="928"/>
      <point x="204" y="977" type="curve" smooth="yes"/>
      <point x="204" y="1008"/>
      <point x="203" y="1026"/>
      <point x="203" y="1026" type="curve"/>
      <point x="467" y="1026" type="line"/>
      <point x="451" y="891" type="line"/>
      <point x="539" y="989"/>
      <point x="621" y="1052"/>
      <point x="729" y="1052" type="curve" smooth="yes"/>
      <point x="758" y="1052"/>
      <point x="792" y="1047"/>
      <point x="829" y="1037" type="curve"/>
      <point x="801" y="820" type="line"/>
      <point x="758" y="835"/>
      <point x="717" y="842"/>
      <point x="681" y="842" type="curve" smooth="yes"/>
      <point x="550" y="842"/>
      <point x="438" y="758"/>
      <point x="417" y="581" type="curve" smooth="yes"/>
      <point x="344" y="0" type="line"/>
    </contour>
  </outline>
</glyph>
<glyph name="s" format="1">
  <advance width="988"/>
  <unicode hex="0073"/>
  <outline>
    <contour>
      <point x="656" y="323" type="curve" smooth="yes"/>
      <point x="656" y="352"/>
      <point x="637" y="378"/>
      <point x="528" y="415" type="curve" smooth="yes"/>
      <point x="388" y="462" type="line" smooth="yes"/>
      <point x="244" y="511"/>
      <point x="143" y="560"/>
      <point x="143" y="706" type="curve" smooth="yes"/>
      <point x="143" y="957"/>
      <point x="350" y="1050"/>
      <point x="563" y="1050" type="curve" smooth="yes"/>
      <point x="689" y="1050"/>
      <point x="825" y="1018"/>
      <point x="919" y="951" type="curve"/>
      <point x="833" y="781" type="line"/>
      <point x="761" y="822"/>
      <point x="647" y="857"/>
      <point x="557" y="857" type="curve" smooth="yes"/>
      <point x="438" y="857"/>
      <point x="383" y="830"/>
      <point x="383" y="746" type="curve" smooth="yes"/>
      <point x="383" y="701"/>
      <point x="414" y="681"/>
      <point x="553" y="633" type="curve" smooth="yes"/>
      <point x="682" y="588" type="line" smooth="yes"/>
      <point x="806" y="545"/>
      <point x="883" y="488"/>
      <point x="883" y="350" type="curve" smooth="yes"/>
      <point x="883" y="73"/>
      <point x="659" y="-23"/>
      <point x="468" y="-23" type="curve" smooth="yes"/>
      <point x="274" y="-23"/>
      <point x="128" y="43"/>
      <point x="56" y="106" type="curve"/>
      <point x="140" y="284" type="line"/>
      <point x="214" y="219"/>
      <point x="350" y="172"/>
      <point x="470" y="172" type="curve" smooth="yes"/>
      <point x="588" y="172"/>
      <point x="656" y="213"/>
    </contour>
  </outline>
</glyph>
<glyph name="t" format="1">
  <advance width="804"/>
  <unicode hex="0074"/>
  <outline>
    <contour>
      <point x="352" y="1360" type="move" name="caron.alt"/>
    </contour>
    <contour>
      <point x="656" y="1" type="line"/>
      <point x="556" y="1" type="line" smooth="yes"/>
      <point x="328" y="1"/>
      <point x="173" y="34"/>
      <point x="173" y="283" type="curve" smooth="yes"/>
      <point x="173" y="311"/>
      <point x="175" y="342"/>
      <point x="179" y="376" type="curve" smooth="yes"/>
      <point x="238" y="860" type="line"/>
      <point x="24" y="860" type="line"/>
      <point x="45" y="1026" type="line"/>
      <point x="269" y="1026" type="line"/>
      <point x="298" y="1266" type="line"/>
      <point x="544" y="1339" type="line"/>
      <point x="506" y="1026" type="line"/>
      <point x="774" y="1026" type="line"/>
      <point x="753" y="860" type="line"/>
      <point x="485" y="860" type="line"/>
      <point x="424" y="361" type="line" smooth="yes"/>
      <point x="421" y="340"/>
      <point x="420" y="322"/>
      <point x="420" y="306" type="curve" smooth="yes"/>
      <point x="420" y="202"/>
      <point x="480" y="191"/>
      <point x="679" y="191" type="curve"/>
    </contour>
  </outline>
</glyph>
<glyph name="u" format="1">
  <advance width="1186"/>
  <unicode hex="0075"/>
  <outline>
    <contour>
      <point x="460" y="-23" type="curve" smooth="yes"/>
      <point x="235" y="-23"/>
      <point x="110" y="101"/>
      <point x="110" y="305" type="curve" smooth="yes"/>
      <point x="110" y="328"/>
      <point x="112" y="351"/>
      <point x="115" y="376" type="curve" smooth="yes"/>
      <point x="194" y="1026" type="line"/>
      <point x="440" y="1026" type="line"/>
      <point x="361" y="380" type="line" smooth="yes"/>
      <point x="359" y="366"/>
      <point x="358" y="353"/>
      <point x="358" y="340" type="curve" smooth="yes"/>
      <point x="358" y="228"/>
      <point x="428" y="177"/>
      <point x="535" y="177" type="curve" smooth="yes"/>
      <point x="681" y="177"/>
      <point x="761" y="244"/>
      <point x="782" y="411" type="curve" smooth="yes"/>
      <point x="857" y="1026" type="line"/>
      <point x="1105" y="1026" type="line"/>
      <point x="1014" y="276" type="line" smooth="yes"/>
      <point x="1008" y="225"/>
      <point x="992" y="13"/>
      <point x="991" y="0" type="curve"/>
      <point x="735" y="0" type="line"/>
      <point x="750" y="152" type="line"/>
      <point x="731" y="103"/>
      <point x="640" y="-23"/>
    </contour>
  </outline>
</glyph>
<glyph name="v" format="1">
  <advance width="1126"/>
  <unicode hex="0076"/>
  <outline>
    <contour>
      <point x="386" y="0" type="line"/>
      <point x="80" y="1026" type="line"/>
      <point x="356" y="1026" type="line"/>
      <point x="418" y="776"/>
      <point x="478" y="524"/>
      <point x="543" y="277" type="curve"/>
      <point x="666" y="524"/>
      <point x="784" y="776"/>
      <point x="904" y="1026" type="curve"/>
      <point x="1173" y="1026" type="line"/>
      <point x="611" y="0" type="line"/>
    </contour>
  </outline>
</glyph>
<glyph name="w" format="1">
  <advance width="1685"/>
  <unicode hex="0077"/>
  <outline>
    <contour>
      <point x="323" y="0" type="line"/>
      <point x="77" y="1026" type="line"/>
      <point x="341" y="1026" type="line"/>
      <point x="389" y="786"/>
      <point x="440" y="547"/>
      <point x="486" y="305" type="curve"/>
      <point x="596" y="546"/>
      <point x="707" y="786"/>
      <point x="817" y="1026" type="curve"/>
      <point x="1033" y="1026" type="line"/>
      <point x="1081" y="785"/>
      <point x="1124" y="541"/>
      <point x="1175" y="303" type="curve"/>
      <point x="1282" y="547"/>
      <point x="1394" y="785"/>
      <point x="1503" y="1026" type="curve"/>
      <point x="1734" y="1026" type="line"/>
      <point x="1219" y="0" type="line"/>
      <point x="1012" y="0" type="line"/>
      <point x="963" y="233"/>
      <point x="912" y="464"/>
      <point x="865" y="698" type="curve"/>
      <point x="755" y="464"/>
      <point x="642" y="233"/>
      <point x="531" y="0" type="curve"/>
    </contour>
  </outline>
</glyph>
<glyph name="x" format="1">
  <advance width="1040"/>
  <unicode hex="0078"/>
  <outline>
    <contour>
      <point x="-52" y="0" type="line"/>
      <point x="380" y="500" type="line"/>
      <point x="91" y="1026" type="line"/>
      <point x="367" y="1026" type="line"/>
      <point x="547" y="695" type="line"/>
      <point x="834" y="1026" type="line"/>
      <point x="1090" y="1026" type="line"/>
      <point x="667" y="534" type="line"/>
      <point x="966" y="0" type="line"/>
      <point x="691" y="0" type="line"/>
      <point x="501" y="339" type="line"/>
      <point x="209" y="0" type="line"/>
    </contour>
  </outline>
</glyph>
<glyph name="y" format="1">
  <advance width="1114"/>
  <unicode hex="0079"/>
  <outline>
    <contour>
      <point x="164" y="-445" type="curve"/>
      <point x="79" y="-277" type="line"/>
      <point x="272" y="-205"/>
      <point x="369" y="-136"/>
      <point x="413" y="-27" type="curve" smooth="yes"/>
      <point x="433" y="23" type="line"/>
      <point x="120" y="1026" type="line"/>
      <point x="378" y="1026" type="line"/>
      <point x="585" y="290" type="line"/>
      <point x="931" y="1026" type="line"/>
      <point x="1184" y="1026" type="line"/>
      <point x="635" y="-56" type="line" smooth="yes"/>
      <point x="520" y="-278"/>
      <point x="337" y="-393"/>
    </contour>
  </outline>
</glyph>
<glyph name="z" format="1">
  <advance width="997"/>
  <unicode hex="007A"/>
  <outline>
    <contour>
      <point x="34" y="0" type="line"/>
      <point x="50" y="131" type="line"/>
      <point x="619" y="828" type="line"/>
      <point x="161" y="828" type="line"/>
      <point x="185" y="1026" type="line"/>
      <point x="966" y="1026" type="line"/>
      <point x="950" y="897" type="line"/>
      <point x="377" y="197" type="line"/>
      <point x="890" y="197" type="line"/>
      <point x="866" y="0" type="line"/>
    </contour>
  </outline>
</glyph>
<glyph name="braceleft" format="1">
  <advance width="987"/>
  <unicode hex="007B"/>
  <outline>
    <contour>
      <point x="658" y="1176" type="curve" smooth="yes"/>
      <point x="632" y="953" type="line" smooth="yes"/>
      <point x="612" y="796"/>
      <point x="537" y="688"/>
      <point x="354" y="683" type="curve"/>
      <point x="510" y="681"/>
      <point x="570" y="604"/>
      <point x="570" y="480" type="curve" smooth="yes"/>
      <point x="570" y="462"/>
      <point x="568" y="444"/>
      <point x="566" y="424" type="curve" smooth="yes"/>
      <point x="539" y="198" type="line" smooth="yes"/>
      <point x="535" y="167"/>
      <point x="533" y="142"/>
      <point x="533" y="121" type="curve" smooth="yes"/>
      <point x="533" y="16"/>
      <point x="587" y="16"/>
      <point x="782" y="15" type="curve"/>
      <point x="759" y="-180" type="line" smooth="yes"/>
      <point x="750" y="-180" type="line" smooth="yes"/>
      <point x="374" y="-180"/>
      <point x="274" y="-127"/>
      <point x="274" y="72" type="curve" smooth="yes"/>
      <point x="274" y="111"/>
      <point x="278" y="155"/>
      <point x="284" y="206" type="curve" smooth="yes"/>
      <point x="312" y="436" type="line" smooth="yes"/>
      <point x="314" y="456"/>
      <point x="316" y="474"/>
      <point x="316" y="490" type="curve" smooth="yes"/>
      <point x="316" y="582"/>
      <point x="272" y="606"/>
      <point x="153" y="606" type="curve" smooth="yes"/>
      <point x="140" y="606" type="line"/>
      <point x="158" y="755" type="line"/>
      <point x="171" y="755" type="line" smooth="yes"/>
      <point x="317" y="755"/>
      <point x="357" y="790"/>
      <point x="374" y="933" type="curve" smooth="yes"/>
      <point x="402" y="1164" type="line" smooth="yes"/>
      <point x="441" y="1478"/>
      <point x="520" y="1542"/>
      <point x="969" y="1542" type="curve"/>
      <point x="946" y="1347" type="line"/>
      <point x="869" y="1347" type="line" smooth="yes"/>
      <point x="711" y="1347"/>
      <point x="678" y="1339"/>
    </contour>
  </outline>
</glyph>
<glyph name="braceright" format="1">
  <advance width="982"/>
  <unicode hex="007D"/>
  <outline>
    <contour>
      <point x="3" y="-180" type="curve"/>
      <point x="25" y="14" type="line"/>
      <point x="103" y="14" type="line" smooth="yes"/>
      <point x="262" y="14"/>
      <point x="294" y="22"/>
      <point x="314" y="185" type="curve" smooth="yes"/>
      <point x="340" y="408" type="line" smooth="yes"/>
      <point x="359" y="565"/>
      <point x="434" y="673"/>
      <point x="618" y="679" type="curve"/>
      <point x="462" y="680"/>
      <point x="402" y="757"/>
      <point x="402" y="881" type="curve" smooth="yes"/>
      <point x="402" y="899"/>
      <point x="404" y="917"/>
      <point x="406" y="937" type="curve" smooth="yes"/>
      <point x="433" y="1163" type="line" smooth="yes"/>
      <point x="437" y="1193"/>
      <point x="439" y="1219"/>
      <point x="439" y="1240" type="curve" smooth="yes"/>
      <point x="439" y="1345"/>
      <point x="385" y="1345"/>
      <point x="189" y="1346" type="curve"/>
      <point x="213" y="1542" type="line" smooth="yes"/>
      <point x="222" y="1542" type="line" smooth="yes"/>
      <point x="598" y="1542"/>
      <point x="697" y="1488"/>
      <point x="697" y="1290" type="curve" smooth="yes"/>
      <point x="697" y="1251"/>
      <point x="693" y="1206"/>
      <point x="687" y="1155" type="curve" smooth="yes"/>
      <point x="660" y="925" type="line" smooth="yes"/>
      <point x="658" y="905"/>
      <point x="656" y="887"/>
      <point x="656" y="871" type="curve" smooth="yes"/>
      <point x="656" y="779"/>
      <point x="700" y="755"/>
      <point x="819" y="755" type="curve" smooth="yes"/>
      <point x="832" y="755" type="line"/>
      <point x="814" y="606" type="line"/>
      <point x="801" y="606" type="line" smooth="yes"/>
      <point x="655" y="606"/>
      <point x="615" y="571"/>
      <point x="598" y="428" type="curve" smooth="yes"/>
      <point x="570" y="197" type="line" smooth="yes"/>
      <point x="531" y="-117"/>
      <point x="452" y="-180"/>
    </contour>
  </outline>
</glyph>
<glyph name="asciitilde" format="1">
  <advance width="1508"/>
  <unicode hex="007E"/>
  <outline>
    <contour>
      <point x="311" y="367" type="curve"/>
      <point x="166" y="441" type="line"/>
      <point x="273" y="697"/>
      <point x="371" y="729"/>
      <point x="492" y="729" type="curve" smooth="yes"/>
      <point x="572" y="729"/>
      <point x="664" y="707"/>
      <point x="778" y="665" type="curve" smooth="yes"/>
      <point x="895" y="618"/>
      <point x="967" y="606"/>
      <point x="1028" y="606" type="curve" smooth="yes"/>
      <point x="1098" y="606"/>
      <point x="1120" y="615"/>
      <point x="1169" y="756" type="curve"/>
      <point x="1318" y="685" type="line"/>
      <point x="1224" y="435"/>
      <point x="1152" y="394"/>
      <point x="1023" y="394" type="curve" smooth="yes"/>
      <point x="936" y="394"/>
      <point x="834" y="417"/>
      <point x="695" y="464" type="curve" smooth="yes"/>
      <point x="593" y="500"/>
      <point x="536" y="514"/>
      <point x="484" y="514" type="curve" smooth="yes"/>
      <point x="406" y="514"/>
      <point x="374" y="500"/>
    </contour>
  </outline>
</glyph>
<glyph name="exclamdown" format="1">
  <advance width="786"/>
  <unicode hex="00A1"/>
  <outline>
    <contour>
      <point x="351" y="769" type="line"/>
      <point x="499" y="769" type="line"/>
      <point x="436" y="-300" type="line"/>
      <point x="141" y="-300" type="line"/>
    </contour>
    <contour>
      <point x="316" y="1156" type="line"/>
      <point x="630" y="1156" type="line"/>
      <point x="594" y="883" type="line"/>
      <point x="281" y="883" type="line"/>
    </contour>
  </outline>
</glyph>
<glyph name="cent" format="1">
  <advance width="1076"/>
  <unicode hex="00A2"/>
  <outline>
    <contour>
      <point x="648" y="847" type="line"/>
      <point x="471" y="819"/>
      <point x="362" y="666"/>
      <point x="362" y="455" type="curve" smooth="yes"/>
      <point x="362" y="311"/>
      <point x="434" y="208"/>
      <point x="567" y="183" type="curve"/>
    </contour>
    <contour>
      <point x="786" y="844" type="curve"/>
      <point x="705" y="184" type="line"/>
      <point x="802" y="202"/>
      <point x="869" y="251"/>
      <point x="902" y="274" type="curve"/>
      <point x="955" y="92" type="line"/>
      <point x="864" y="33"/>
      <point x="778" y="-2"/>
      <point x="681" y="-16" type="curve"/>
      <point x="653" y="-242" type="line"/>
      <point x="515" y="-242" type="line"/>
      <point x="542" y="-22" type="line"/>
      <point x="253" y="-6"/>
      <point x="103" y="199"/>
      <point x="103" y="438" type="curve" smooth="yes"/>
      <point x="103" y="463"/>
      <point x="105" y="488"/>
      <point x="108" y="514" type="curve" smooth="yes"/>
      <point x="145" y="807"/>
      <point x="357" y="1036"/>
      <point x="673" y="1051" type="curve"/>
      <point x="697" y="1250" type="line"/>
      <point x="836" y="1250" type="line"/>
      <point x="811" y="1045" type="line"/>
      <point x="920" y="1029"/>
      <point x="1003" y="984"/>
      <point x="1061" y="914" type="curve"/>
      <point x="954" y="754" type="line"/>
      <point x="915" y="793"/>
      <point x="860" y="829"/>
    </contour>
  </outline>
</glyph>
<glyph name="sterling" format="1">
  <advance width="1255"/>
  <unicode hex="00A3"/>
  <outline>
    <contour>
      <point x="896" y="1282" type="curve" smooth="yes"/>
      <point x="724" y="1282"/>
      <point x="635" y="1193"/>
      <point x="604" y="949" type="curve" smooth="yes"/>
      <point x="591" y="842" type="line"/>
      <point x="929" y="842" type="line"/>
      <point x="905" y="649" type="line"/>
      <point x="567" y="649" type="line"/>
      <point x="563" y="618" type="line" smooth="yes"/>
      <point x="541" y="436"/>
      <point x="512" y="292"/>
      <point x="437" y="204" type="curve"/>
      <point x="1112" y="204" type="line"/>
      <point x="1087" y="0" type="line"/>
      <point x="55" y="0" type="line"/>
      <point x="78" y="186" type="line"/>
      <point x="161" y="258"/>
      <point x="280" y="324"/>
      <point x="317" y="622" type="curve" smooth="yes"/>
      <point x="320" y="649" type="line"/>
      <point x="135" y="649" type="line"/>
      <point x="159" y="842" type="line"/>
      <point x="340" y="842" type="line"/>
      <point x="347" y="892" type="line"/>
      <point x="386" y="1215"/>
      <point x="500" y="1484"/>
      <point x="905" y="1484" type="curve" smooth="yes"/>
      <point x="1034" y="1484"/>
      <point x="1145" y="1463"/>
      <point x="1234" y="1411" type="curve"/>
      <point x="1149" y="1219" type="line"/>
      <point x="1068" y="1258"/>
      <point x="990" y="1282"/>
    </contour>
  </outline>
</glyph>
<glyph name="brokenbar" format="1">
  <advance width="500"/>
  <unicode hex="00A6"/>
  <outline>
    <contour>
      <point x="97" y="565" type="line"/>
      <point x="212" y="1506" type="line"/>
      <point x="459" y="1506" type="line"/>
      <point x="344" y="565" type="line"/>
    </contour>
    <contour>
      <point x="-26" y="-455" type="line"/>
      <point x="81" y="415" type="line"/>
      <point x="328" y="415" type="line"/>
      <point x="221" y="-455" type="line"/>
    </contour>
  </outline>
</glyph>
<glyph name="section" format="1">
  <advance width="1104"/>
  <unicode hex="00A7"/>
  <outline>
    <contour>
      <point x="629" y="592" type="curve"/>
      <point x="650" y="617"/>
      <point x="671" y="649"/>
      <point x="671" y="701" type="curve" smooth="yes"/>
      <point x="671" y="769"/>
      <point x="609" y="786"/>
      <point x="499" y="839" type="curve"/>
      <point x="484" y="828"/>
      <point x="427" y="782"/>
      <point x="427" y="722" type="curve" smooth="yes"/>
      <point x="427" y="665"/>
      <point x="498" y="653"/>
    </contour>
    <contour>
      <point x="611" y="262" type="curve" smooth="yes"/>
      <point x="611" y="306"/>
      <point x="554" y="335"/>
      <point x="346" y="442" type="curve" smooth="yes"/>
      <point x="238" y="496"/>
      <point x="169" y="579"/>
      <point x="169" y="683" type="curve" smooth="yes"/>
      <point x="169" y="796"/>
      <point x="238" y="882"/>
      <point x="329" y="943" type="curve"/>
      <point x="274" y="992"/>
      <point x="248" y="1049"/>
      <point x="248" y="1128" type="curve" smooth="yes"/>
      <point x="248" y="1374"/>
      <point x="450" y="1481"/>
      <point x="678" y="1481" type="curve" smooth="yes"/>
      <point x="773" y="1481"/>
      <point x="877" y="1464"/>
      <point x="970" y="1431" type="curve"/>
      <point x="945" y="1229" type="line"/>
      <point x="892" y="1240"/>
      <point x="789" y="1288"/>
      <point x="688" y="1288" type="curve" smooth="yes"/>
      <point x="613" y="1288"/>
      <point x="526" y="1258"/>
      <point x="526" y="1184" type="curve" smooth="yes"/>
      <point x="526" y="1127"/>
      <point x="595" y="1074"/>
      <point x="720" y="1012" type="curve"/>
      <point x="842" y="944"/>
      <point x="952" y="877"/>
      <point x="952" y="748" type="curve" smooth="yes"/>
      <point x="952" y="636"/>
      <point x="885" y="561"/>
      <point x="794" y="493" type="curve"/>
      <point x="855" y="454"/>
      <point x="887" y="388"/>
      <point x="887" y="304" type="curve" smooth="yes"/>
      <point x="887" y="50"/>
      <point x="662" y="-61"/>
      <point x="427" y="-61" type="curve" smooth="yes"/>
      <point x="317" y="-61"/>
      <point x="207" y="-41"/>
      <point x="100" y="0" type="curve"/>
      <point x="126" y="209" type="line"/>
      <point x="207" y="175"/>
      <point x="337" y="144"/>
      <point x="443" y="144" type="curve" smooth="yes"/>
      <point x="525" y="144"/>
      <point x="611" y="178"/>
    </contour>
  </outline>
</glyph>
<glyph name="copyright" format="1">
  <advance width="1713"/>
  <unicode hex="00A9"/>
  <outline>
    <contour>
      <point x="765" y="-22" type="curve" smooth="yes"/>
      <point x="382" y="-22"/>
      <point x="100" y="269"/>
      <point x="100" y="640" type="curve" smooth="yes"/>
      <point x="100" y="670"/>
      <point x="102" y="701"/>
      <point x="106" y="732" type="curve" smooth="yes"/>
      <point x="157" y="1145"/>
      <point x="535" y="1483"/>
      <point x="949" y="1483" type="curve" smooth="yes"/>
      <point x="1331" y="1483"/>
      <point x="1613" y="1194"/>
      <point x="1613" y="824" type="curve" smooth="yes"/>
      <point x="1613" y="794"/>
      <point x="1611" y="763"/>
      <point x="1607" y="732" type="curve" smooth="yes"/>
      <point x="1556" y="318"/>
      <point x="1178" y="-22"/>
    </contour>
    <contour>
      <point x="776" y="93" type="curve" smooth="yes"/>
      <point x="1121" y="93"/>
      <point x="1431" y="383"/>
      <point x="1473" y="729" type="curve" smooth="yes"/>
      <point x="1476" y="756"/>
      <point x="1478" y="781"/>
      <point x="1478" y="807" type="curve" smooth="yes"/>
      <point x="1478" y="1116"/>
      <point x="1250" y="1361"/>
      <point x="932" y="1361" type="curve" smooth="yes"/>
      <point x="587" y="1361"/>
      <point x="279" y="1074"/>
      <point x="237" y="729" type="curve" smooth="yes"/>
      <point x="234" y="702"/>
      <point x="232" y="676"/>
      <point x="232" y="650" type="curve" smooth="yes"/>
      <point x="232" y="340"/>
      <point x="458" y="93"/>
    </contour>
    <contour>
      <point x="646" y="678" type="curve" smooth="yes"/>
      <point x="646" y="543"/>
      <point x="719" y="448"/>
      <point x="869" y="448" type="curve" smooth="yes"/>
      <point x="985" y="448"/>
      <point x="1059" y="506"/>
      <point x="1087" y="526" type="curve"/>
      <point x="1132" y="375" type="line"/>
      <point x="1034" y="312"/>
      <point x="942" y="283"/>
      <point x="821" y="283" type="curve" smooth="yes"/>
      <point x="555" y="283"/>
      <point x="432" y="458"/>
      <point x="432" y="663" type="curve" smooth="yes"/>
      <point x="432" y="684"/>
      <point x="433" y="705"/>
      <point x="436" y="727" type="curve" smooth="yes"/>
      <point x="467" y="975"/>
      <point x="654" y="1169"/>
      <point x="928" y="1169" type="curve" smooth="yes"/>
      <point x="1062" y="1169"/>
      <point x="1158" y="1130"/>
      <point x="1220" y="1055" type="curve"/>
      <point x="1132" y="924" type="line"/>
      <point x="1088" y="966"/>
      <point x="1025" y="1004"/>
      <point x="930" y="1004" type="curve" smooth="yes"/>
      <point x="755" y="1004"/>
      <point x="646" y="869"/>
    </contour>
  </outline>
</glyph>
<glyph name="ordfeminine" format="1">
  <advance width="868"/>
  <unicode hex="00AA"/>
  <outline>
    <contour>
      <point x="330" y="850" type="curve" smooth="yes"/>
      <point x="403" y="850"/>
      <point x="524" y="897"/>
      <point x="540" y="1029" type="curve" smooth="yes"/>
      <point x="542" y="1043" type="line"/>
      <point x="330" y="1043"/>
      <point x="267" y="1037"/>
      <point x="254" y="936" type="curve" smooth="yes"/>
      <point x="254" y="932"/>
      <point x="253" y="929"/>
      <point x="253" y="926" type="curve" smooth="yes"/>
      <point x="253" y="878"/>
      <point x="292" y="850"/>
    </contour>
    <contour>
      <point x="301" y="721" type="curve" smooth="yes"/>
      <point x="187" y="721"/>
      <point x="85" y="783"/>
      <point x="85" y="907" type="curve" smooth="yes"/>
      <point x="85" y="916"/>
      <point x="86" y="926"/>
      <point x="87" y="936" type="curve" smooth="yes"/>
      <point x="104" y="1073"/>
      <point x="201" y="1152"/>
      <point x="380" y="1152" type="curve" smooth="yes"/>
      <point x="558" y="1152" type="line"/>
      <point x="563" y="1192" type="line" smooth="yes"/>
      <point x="564" y="1199"/>
      <point x="564" y="1206"/>
      <point x="564" y="1213" type="curve" smooth="yes"/>
      <point x="564" y="1289"/>
      <point x="513" y="1315"/>
      <point x="447" y="1315" type="curve" smooth="yes"/>
      <point x="344" y="1315"/>
      <point x="216" y="1262"/>
      <point x="216" y="1262" type="curve"/>
      <point x="176" y="1407" type="line"/>
      <point x="176" y="1407"/>
      <point x="305" y="1476"/>
      <point x="490" y="1476" type="curve" smooth="yes"/>
      <point x="638" y="1476"/>
      <point x="762" y="1418"/>
      <point x="762" y="1239" type="curve" smooth="yes"/>
      <point x="762" y="1222"/>
      <point x="761" y="1203"/>
      <point x="759" y="1184" type="curve" smooth="yes"/>
      <point x="735" y="988"/>
      <point x="737" y="993"/>
      <point x="728" y="908" type="curve" smooth="yes"/>
      <point x="720" y="832"/>
      <point x="718" y="797"/>
      <point x="718" y="777" type="curve" smooth="yes"/>
      <point x="718" y="767"/>
      <point x="718" y="761"/>
      <point x="719" y="754" type="curve"/>
      <point x="538" y="754" type="line"/>
      <point x="533" y="852" type="line"/>
      <point x="510" y="798"/>
      <point x="431" y="721"/>
    </contour>
  </outline>
</glyph>
<glyph name="guillemotleft" format="1">
  <advance width="1177"/>
  <unicode hex="00AB"/>
  <outline>
    <contour>
      <point x="807" y="158" type="line"/>
      <point x="577" y="541" type="line"/>
      <point x="908" y="922" type="line"/>
      <point x="1108" y="922" type="line"/>
      <point x="822" y="539" type="line"/>
      <point x="1005" y="158" type="line"/>
    </contour>
    <contour>
      <point x="365" y="158" type="line"/>
      <point x="136" y="541" type="line"/>
      <point x="467" y="922" type="line"/>
      <point x="667" y="922" type="line"/>
      <point x="381" y="539" type="line"/>
      <point x="564" y="158" type="line"/>
    </contour>
  </outline>
</glyph>
<glyph name="logicalnot" format="1">
  <advance width="1457"/>
  <unicode hex="00AC"/>
  <outline>
    <contour>
      <point x="959" y="220" type="line"/>
      <point x="1006" y="609" type="line"/>
      <point x="174" y="609" type="line"/>
      <point x="199" y="814" type="line"/>
      <point x="1264" y="814" type="line"/>
      <point x="1192" y="220" type="line"/>
    </contour>
  </outline>
</glyph>
<glyph name="softhyphen" format="1">
  <advance width="739"/>
  <unicode hex="00AD"/>
  <outline>
    <contour>
      <point x="43" y="457" type="line"/>
      <point x="66" y="647" type="line"/>
      <point x="698" y="647" type="line"/>
      <point x="675" y="457" type="line"/>
    </contour>
  </outline>
</glyph>
<glyph name="registered" format="1">
  <advance width="1713"/>
  <unicode hex="00AE"/>
  <outline>
    <contour>
      <point x="765" y="-22" type="curve" smooth="yes"/>
      <point x="382" y="-22"/>
      <point x="100" y="269"/>
      <point x="100" y="640" type="curve" smooth="yes"/>
      <point x="100" y="670"/>
      <point x="102" y="701"/>
      <point x="106" y="732" type="curve" smooth="yes"/>
      <point x="157" y="1145"/>
      <point x="535" y="1483"/>
      <point x="949" y="1483" type="curve" smooth="yes"/>
      <point x="1331" y="1483"/>
      <point x="1613" y="1194"/>
      <point x="1613" y="824" type="curve" smooth="yes"/>
      <point x="1613" y="794"/>
      <point x="1611" y="763"/>
      <point x="1607" y="732" type="curve" smooth="yes"/>
      <point x="1556" y="318"/>
      <point x="1178" y="-22"/>
    </contour>
    <contour>
      <point x="776" y="93" type="curve" smooth="yes"/>
      <point x="1121" y="93"/>
      <point x="1431" y="383"/>
      <point x="1473" y="729" type="curve" smooth="yes"/>
      <point x="1476" y="756"/>
      <point x="1478" y="781"/>
      <point x="1478" y="807" type="curve" smooth="yes"/>
      <point x="1478" y="1116"/>
      <point x="1250" y="1361"/>
      <point x="932" y="1361" type="curve" smooth="yes"/>
      <point x="587" y="1361"/>
      <point x="279" y="1074"/>
      <point x="237" y="729" type="curve" smooth="yes"/>
      <point x="234" y="702"/>
      <point x="232" y="676"/>
      <point x="232" y="650" type="curve" smooth="yes"/>
      <point x="232" y="340"/>
      <point x="458" y="93"/>
    </contour>
    <contour>
      <point x="1041" y="928" type="curve" smooth="yes"/>
      <point x="1041" y="995"/>
      <point x="1004" y="1003"/>
      <point x="877" y="1003" type="curve" smooth="yes"/>
      <point x="768" y="1003" type="line"/>
      <point x="742" y="788" type="line"/>
      <point x="833" y="788" type="line" smooth="yes"/>
      <point x="968" y="788"/>
      <point x="1041" y="811"/>
    </contour>
    <contour>
      <point x="466" y="290" type="line"/>
      <point x="573" y="1171" type="line"/>
      <point x="891" y="1171" type="line" smooth="yes"/>
      <point x="1146" y="1171"/>
      <point x="1258" y="1093"/>
      <point x="1258" y="947" type="curve" smooth="yes"/>
      <point x="1258" y="934"/>
      <point x="1257" y="921"/>
      <point x="1255" y="907" type="curve" smooth="yes"/>
      <point x="1243" y="810"/>
      <point x="1193" y="703"/>
      <point x="1048" y="665" type="curve"/>
      <point x="1190" y="290" type="line"/>
      <point x="955" y="290" type="line"/>
      <point x="844" y="630" type="line"/>
      <point x="721" y="630" type="line"/>
      <point x="680" y="290" type="line"/>
    </contour>
  </outline>
</glyph>
<glyph name="macron" format="1">
  <advance width="756"/>
  <unicode hex="00AF"/>
  <outline>
    <contour>
      <point x="56" y="1146" type="line"/>
      <point x="75" y="1303" type="line"/>
      <point x="700" y="1303" type="line"/>
      <point x="681" y="1146" type="line"/>
    </contour>
  </outline>
</glyph>
<glyph name="degree" format="1">
  <advance width="886"/>
  <unicode hex="00B0"/>
  <outline>
    <contour>
      <point x="482" y="1466" type="curve" smooth="yes"/>
      <point x="640" y="1466"/>
      <point x="759" y="1348"/>
      <point x="759" y="1194" type="curve" smooth="yes"/>
      <point x="759" y="995"/>
      <point x="584" y="849"/>
      <point x="405" y="849" type="curve" smooth="yes"/>
      <point x="247" y="849"/>
      <point x="127" y="964"/>
      <point x="127" y="1119" type="curve" smooth="yes"/>
      <point x="127" y="1317"/>
      <point x="304" y="1466"/>
    </contour>
    <contour>
      <point x="613" y="1179" type="curve" smooth="yes"/>
      <point x="613" y="1265"/>
      <point x="552" y="1328"/>
      <point x="464" y="1328" type="curve" smooth="yes"/>
      <point x="365" y="1328"/>
      <point x="276" y="1245"/>
      <point x="276" y="1132" type="curve" smooth="yes"/>
      <point x="276" y="1046"/>
      <point x="336" y="984"/>
      <point x="421" y="984" type="curve" smooth="yes"/>
      <point x="522" y="984"/>
      <point x="613" y="1066"/>
    </contour>
  </outline>
</glyph>
<glyph name="plusminus" format="1">
  <advance width="1272"/>
  <unicode hex="00B1"/>
  <outline>
    <contour>
      <point x="123" y="0" type="line"/>
      <point x="146" y="184" type="line"/>
      <point x="1036" y="184" type="line"/>
      <point x="1013" y="0" type="line"/>
    </contour>
    <contour>
      <point x="484" y="291" type="line"/>
      <point x="519" y="592" type="line"/>
      <point x="195" y="592" type="line"/>
      <point x="220" y="792" type="line"/>
      <point x="539" y="792" type="line"/>
      <point x="576" y="1099" type="line"/>
      <point x="813" y="1099" type="line"/>
      <point x="776" y="792" type="line"/>
      <point x="1108" y="792" type="line"/>
      <point x="1083" y="592" type="line"/>
      <point x="760" y="592" type="line"/>
      <point x="724" y="291" type="line"/>
    </contour>
  </outline>
</glyph>
<glyph name="twosuperior" format="1">
  <advance width="1072"/>
  <unicode hex="00B2"/>
  <outline>
    <contour>
      <point x="173" y="613" type="line"/>
      <point x="195" y="795" type="line"/>
      <point x="485" y="1022" type="line" smooth="yes"/>
      <point x="614" y="1122"/>
      <point x="638" y="1172"/>
      <point x="642" y="1201" type="curve" smooth="yes"/>
      <point x="643" y="1206"/>
      <point x="643" y="1211"/>
      <point x="643" y="1216" type="curve" smooth="yes"/>
      <point x="643" y="1269"/>
      <point x="603" y="1287"/>
      <point x="550" y="1287" type="curve" smooth="yes"/>
      <point x="483" y="1287"/>
      <point x="380" y="1259"/>
      <point x="291" y="1223" type="curve"/>
      <point x="251" y="1389" type="line"/>
      <point x="366" y="1439"/>
      <point x="488" y="1466"/>
      <point x="586" y="1466" type="curve" smooth="yes"/>
      <point x="733" y="1466"/>
      <point x="855" y="1402"/>
      <point x="855" y="1246" type="curve" smooth="yes"/>
      <point x="855" y="1232"/>
      <point x="854" y="1218"/>
      <point x="852" y="1203" type="curve" smooth="yes"/>
      <point x="837" y="1078"/>
      <point x="725" y="980"/>
      <point x="600" y="886" type="curve" smooth="yes"/>
      <point x="502" y="813" type="line"/>
      <point x="791" y="813" type="line"/>
      <point x="767" y="613" type="line"/>
    </contour>
  </outline>
</glyph>
<glyph name="threesuperior" format="1">
  <advance width="909"/>
  <unicode hex="00B3"/>
  <outline>
    <contour>
      <point x="599" y="891" type="curve" smooth="yes"/>
      <point x="599" y="944"/>
      <point x="548" y="984"/>
      <point x="458" y="984" type="curve" smooth="yes"/>
      <point x="363" y="984" type="line"/>
      <point x="381" y="1126" type="line"/>
      <point x="474" y="1126" type="line" smooth="yes"/>
      <point x="557" y="1126"/>
      <point x="620" y="1172"/>
      <point x="620" y="1237" type="curve" smooth="yes"/>
      <point x="620" y="1293"/>
      <point x="575" y="1320"/>
      <point x="509" y="1320" type="curve" smooth="yes"/>
      <point x="449" y="1320"/>
      <point x="368" y="1299"/>
      <point x="279" y="1255" type="curve"/>
      <point x="234" y="1378" type="line"/>
      <point x="344" y="1434"/>
      <point x="461" y="1463"/>
      <point x="563" y="1463" type="curve" smooth="yes"/>
      <point x="702" y="1463"/>
      <point x="810" y="1407"/>
      <point x="810" y="1279" type="curve" smooth="yes"/>
      <point x="810" y="1269"/>
      <point x="809" y="1260"/>
      <point x="808" y="1249" type="curve" smooth="yes"/>
      <point x="800" y="1190"/>
      <point x="768" y="1113"/>
      <point x="649" y="1073" type="curve"/>
      <point x="759" y="1042"/>
      <point x="795" y="971"/>
      <point x="795" y="902" type="curve" smooth="yes"/>
      <point x="795" y="893"/>
      <point x="794" y="884"/>
      <point x="793" y="875" type="curve" smooth="yes"/>
      <point x="771" y="684"/>
      <point x="610" y="604"/>
      <point x="449" y="604" type="curve" smooth="yes"/>
      <point x="347" y="604"/>
      <point x="241" y="637"/>
      <point x="162" y="697" type="curve"/>
      <point x="240" y="831" type="line"/>
      <point x="325" y="778"/>
      <point x="395" y="756"/>
      <point x="452" y="756" type="curve" smooth="yes"/>
      <point x="538" y="756"/>
      <point x="599" y="811"/>
    </contour>
  </outline>
</glyph>
<glyph name="paragraph" format="1">
  <advance width="1226"/>
  <unicode hex="00B6"/>
  <outline>
    <contour>
      <point x="670" y="1455" type="curve" smooth="yes"/>
      <point x="1164" y="1455" type="line"/>
      <point x="1141" y="1263" type="line"/>
      <point x="1068" y="1263" type="line"/>
      <point x="891" y="-178" type="line"/>
      <point x="685" y="-178" type="line"/>
      <point x="862" y="1263" type="line"/>
      <point x="694" y="1263" type="line"/>
      <point x="517" y="-178" type="line"/>
      <point x="312" y="-178" type="line"/>
      <point x="430" y="789" type="line"/>
      <point x="238" y="806"/>
      <point x="146" y="905"/>
      <point x="146" y="1070" type="curve" smooth="yes"/>
      <point x="146" y="1379"/>
      <point x="376" y="1455"/>
    </contour>
  </outline>
</glyph>
<glyph name="cedilla" format="1">
  <advance width="529"/>
  <unicode hex="00B8"/>
  <outline>
    <contour>
      <point x="304" y="-216" type="curve" smooth="yes"/>
      <point x="304" y="-173"/>
      <point x="268" y="-156"/>
      <point x="161" y="-140" type="curve" smooth="yes"/>
      <point x="132" y="-136" type="line"/>
      <point x="185" y="39" type="line"/>
      <point x="309" y="39" type="line"/>
      <point x="277" y="-75" type="line"/>
      <point x="445" y="-87"/>
      <point x="507" y="-149"/>
      <point x="507" y="-235" type="curve" smooth="yes"/>
      <point x="507" y="-244"/>
      <point x="506" y="-253"/>
      <point x="505" y="-262" type="curve" smooth="yes"/>
      <point x="485" y="-422"/>
      <point x="354" y="-494"/>
      <point x="221" y="-494" type="curve" smooth="yes"/>
      <point x="142" y="-494"/>
      <point x="70" y="-473"/>
      <point x="-8" y="-426" type="curve"/>
      <point x="24" y="-264" type="line"/>
      <point x="73" y="-287"/>
      <point x="126" y="-301"/>
      <point x="177" y="-301" type="curve" smooth="yes"/>
      <point x="245" y="-301"/>
      <point x="304" y="-289"/>
    </contour>
  </outline>
</glyph>
<glyph name="ordmasculine" format="1">
  <advance width="913"/>
  <unicode hex="00BA"/>
  <outline>
    <contour>
      <point x="415" y="713" type="curve" smooth="yes"/>
      <point x="183" y="713"/>
      <point x="70" y="843"/>
      <point x="70" y="1024" type="curve" smooth="yes"/>
      <point x="70" y="1042"/>
      <point x="71" y="1061"/>
      <point x="73" y="1080" type="curve" smooth="yes"/>
      <point x="98" y="1283"/>
      <point x="260" y="1443"/>
      <point x="502" y="1443" type="curve" smooth="yes"/>
      <point x="725" y="1443"/>
      <point x="843" y="1307"/>
      <point x="843" y="1129" type="curve" smooth="yes"/>
      <point x="843" y="1112"/>
      <point x="842" y="1094"/>
      <point x="840" y="1076" type="curve" smooth="yes"/>
      <point x="816" y="878"/>
      <point x="659" y="713"/>
    </contour>
    <contour>
      <point x="649" y="1111" type="curve" smooth="yes"/>
      <point x="649" y="1219"/>
      <point x="585" y="1283"/>
      <point x="484" y="1283" type="curve" smooth="yes"/>
      <point x="363" y="1283"/>
      <point x="264" y="1187"/>
      <point x="264" y="1040" type="curve" smooth="yes"/>
      <point x="264" y="935"/>
      <point x="325" y="873"/>
      <point x="431" y="873" type="curve" smooth="yes"/>
      <point x="553" y="873"/>
      <point x="649" y="967"/>
    </contour>
  </outline>
</glyph>
<glyph name="guillemotright" format="1">
  <advance width="1177"/>
  <unicode hex="00BB"/>
  <outline>
    <contour>
      <point x="528" y="158" type="line"/>
      <point x="814" y="541" type="line"/>
      <point x="631" y="922" type="line"/>
      <point x="829" y="922" type="line"/>
      <point x="1059" y="539" type="line"/>
      <point x="729" y="158" type="line"/>
    </contour>
    <contour>
      <point x="87" y="158" type="line"/>
      <point x="373" y="541" type="line"/>
      <point x="190" y="922" type="line"/>
      <point x="388" y="922" type="line"/>
      <point x="618" y="539" type="line"/>
      <point x="287" y="158" type="line"/>
    </contour>
  </outline>
</glyph>
<glyph name="onehalf" format="1">
  <advance width="2554"/>
  <unicode hex="00BD"/>
  <outline>
    <contour>
      <point x="181" y="619" type="line"/>
      <point x="201" y="786" type="line"/>
      <point x="412" y="786" type="line"/>
      <point x="471" y="1257" type="line"/>
      <point x="240" y="1204" type="line"/>
      <point x="261" y="1379" type="line"/>
      <point x="261" y="1379"/>
      <point x="544" y="1461"/>
      <point x="536" y="1456" type="curve"/>
      <point x="692" y="1456" type="line"/>
      <point x="611" y="784" type="line"/>
      <point x="794" y="784" type="line"/>
      <point x="774" y="619" type="line"/>
    </contour>
    <contour>
      <point x="549" y="0" type="line"/>
      <point x="1612" y="1456" type="line"/>
      <point x="1825" y="1456" type="line"/>
      <point x="763" y="0" type="line"/>
    </contour>
    <contour>
      <point x="1516" y="0" type="line"/>
      <point x="1536" y="169" type="line"/>
      <point x="1837" y="389" type="line" smooth="yes"/>
      <point x="1966" y="484"/>
      <point x="1986" y="525"/>
      <point x="1986" y="584" type="curve" smooth="yes"/>
      <point x="1986" y="652"/>
      <point x="1953" y="675"/>
      <point x="1891" y="675" type="curve" smooth="yes"/>
      <point x="1823" y="675"/>
      <point x="1724" y="648"/>
      <point x="1638" y="608" type="curve"/>
      <point x="1595" y="768" type="line"/>
      <point x="1706" y="822"/>
      <point x="1828" y="851"/>
      <point x="1928" y="851" type="curve" smooth="yes"/>
      <point x="2079" y="851"/>
      <point x="2192" y="782"/>
      <point x="2192" y="618" type="curve" smooth="yes"/>
      <point x="2192" y="466"/>
      <point x="2075" y="365"/>
      <point x="1937" y="266" type="curve" smooth="yes"/>
      <point x="1835" y="193" type="line"/>
      <point x="2128" y="193" type="line"/>
      <point x="2106" y="0" type="line"/>
    </contour>
  </outline>
</glyph>
<glyph name="threequarters" format="1">
  <advance width="2534"/>
  <unicode hex="00BE"/>
  <outline>
    <contour>
      <point x="1533" y="329" type="line"/>
      <point x="1710" y="329" type="line"/>
      <point x="1741" y="583" type="line"/>
    </contour>
    <contour>
      <point x="560" y="0" type="line"/>
      <point x="1624" y="1456" type="line"/>
      <point x="1837" y="1456" type="line"/>
      <point x="774" y="0" type="line"/>
    </contour>
    <contour>
      <point x="1672" y="1" type="line"/>
      <point x="1696" y="195" type="line"/>
      <point x="1327" y="195" type="line"/>
      <point x="1342" y="308" type="line"/>
      <point x="1772" y="814" type="line"/>
      <point x="1952" y="814" type="line"/>
      <point x="1892" y="329" type="line"/>
      <point x="2008" y="329" type="line"/>
      <point x="1991" y="195" type="line"/>
      <point x="1876" y="195" type="line"/>
      <point x="1852" y="1" type="line"/>
    </contour>
    <contour>
      <point x="672" y="888" type="curve" smooth="yes"/>
      <point x="672" y="943"/>
      <point x="619" y="984"/>
      <point x="527" y="984" type="curve" smooth="yes"/>
      <point x="435" y="984" type="line"/>
      <point x="452" y="1127" type="line"/>
      <point x="542" y="1127" type="line" smooth="yes"/>
      <point x="628" y="1127"/>
      <point x="693" y="1167"/>
      <point x="693" y="1236" type="curve" smooth="yes"/>
      <point x="693" y="1292"/>
      <point x="649" y="1316"/>
      <point x="582" y="1316" type="curve" smooth="yes"/>
      <point x="522" y="1316"/>
      <point x="438" y="1295"/>
      <point x="352" y="1250" type="curve"/>
      <point x="308" y="1376" type="line"/>
      <point x="414" y="1432"/>
      <point x="533" y="1462"/>
      <point x="633" y="1462" type="curve" smooth="yes"/>
      <point x="772" y="1462"/>
      <point x="879" y="1405"/>
      <point x="879" y="1277" type="curve" smooth="yes"/>
      <point x="879" y="1267"/>
      <point x="878" y="1257"/>
      <point x="877" y="1246" type="curve" smooth="yes"/>
      <point x="869" y="1186"/>
      <point x="840" y="1107"/>
      <point x="716" y="1070" type="curve"/>
      <point x="828" y="1042"/>
      <point x="863" y="969"/>
      <point x="863" y="900" type="curve" smooth="yes"/>
      <point x="863" y="891"/>
      <point x="862" y="881"/>
      <point x="861" y="872" type="curve" smooth="yes"/>
      <point x="839" y="684"/>
      <point x="681" y="603"/>
      <point x="520" y="603" type="curve" smooth="yes"/>
      <point x="419" y="603"/>
      <point x="312" y="636"/>
      <point x="235" y="697" type="curve"/>
      <point x="312" y="832" type="line"/>
      <point x="395" y="778"/>
      <point x="467" y="756"/>
      <point x="524" y="756" type="curve" smooth="yes"/>
      <point x="610" y="756"/>
      <point x="672" y="807"/>
    </contour>
  </outline>
</glyph>
<glyph name="AE" format="1">
  <advance width="2215"/>
  <unicode hex="00C6"/>
  <outline>
    <contour>
      <point x="614" y="558" type="line"/>
      <point x="1080" y="558" type="line"/>
      <point x="1115" y="1230" type="line"/>
      <point x="1082" y="1230" type="line"/>
    </contour>
    <contour>
      <point x="-70" y="0" type="line"/>
      <point x="975" y="1456" type="line"/>
      <point x="2059" y="1456" type="line"/>
      <point x="2031" y="1230" type="line"/>
      <point x="1374" y="1230" type="line"/>
      <point x="1363" y="854" type="line"/>
      <point x="1983" y="854" type="line"/>
      <point x="1955" y="634" type="line"/>
      <point x="1363" y="634" type="line"/>
      <point x="1353" y="226" type="line"/>
      <point x="1935" y="226" type="line"/>
      <point x="1907" y="0" type="line"/>
      <point x="1059" y="0" type="line"/>
      <point x="1073" y="355" type="line"/>
      <point x="489" y="355" type="line"/>
      <point x="244" y="0" type="line"/>
    </contour>
  </outline>
</glyph>
<glyph name="Oslash" format="1">
  <advance width="1671"/>
  <unicode hex="00D8"/>
  <outline>
    <contour>
      <point x="748" y="-23" type="curve" smooth="yes"/>
      <point x="636" y="-23"/>
      <point x="536" y="-5"/>
      <point x="451" y="29" type="curve"/>
      <point x="348" y="-128" type="line"/>
      <point x="238" y="-75" type="line"/>
      <point x="344" y="86" type="line"/>
      <point x="185" y="193"/>
      <point x="98" y="374"/>
      <point x="98" y="608" type="curve" smooth="yes"/>
      <point x="98" y="649"/>
      <point x="101" y="691"/>
      <point x="106" y="735" type="curve" smooth="yes"/>
      <point x="161" y="1181"/>
      <point x="474" y="1483"/>
      <point x="935" y="1483" type="curve" smooth="yes"/>
      <point x="1046" y="1483"/>
      <point x="1144" y="1464"/>
      <point x="1228" y="1429" type="curve"/>
      <point x="1324" y="1575" type="line"/>
      <point x="1434" y="1523" type="line"/>
      <point x="1334" y="1372" type="line"/>
      <point x="1488" y="1265"/>
      <point x="1573" y="1085"/>
      <point x="1573" y="858" type="curve" smooth="yes"/>
      <point x="1573" y="818"/>
      <point x="1570" y="777"/>
      <point x="1565" y="735" type="curve" smooth="yes"/>
      <point x="1509" y="275"/>
      <point x="1204" y="-23"/>
    </contour>
    <contour>
      <point x="1195" y="1159" type="curve"/>
      <point x="582" y="227" type="line"/>
      <point x="634" y="205"/>
      <point x="696" y="194"/>
      <point x="768" y="194" type="curve" smooth="yes"/>
      <point x="1069" y="194"/>
      <point x="1247" y="392"/>
      <point x="1289" y="735" type="curve" smooth="yes"/>
      <point x="1294" y="775"/>
      <point x="1296" y="812"/>
      <point x="1296" y="848" type="curve" smooth="yes"/>
      <point x="1296" y="981"/>
      <point x="1263" y="1087"/>
    </contour>
    <contour>
      <point x="373" y="616" type="curve" smooth="yes"/>
      <point x="373" y="474"/>
      <point x="409" y="366"/>
      <point x="481" y="294" type="curve"/>
      <point x="1096" y="1229" type="line"/>
      <point x="1043" y="1253"/>
      <point x="979" y="1266"/>
      <point x="904" y="1266" type="curve" smooth="yes"/>
      <point x="575" y="1266"/>
      <point x="373" y="1012"/>
    </contour>
  </outline>
</glyph>
<glyph name="Thorn" format="1">
  <advance width="1300"/>
  <unicode hex="00DE"/>
  <outline>
    <contour>
      <point x="957" y="817" type="curve" smooth="yes"/>
      <point x="957" y="970"/>
      <point x="837" y="1007"/>
      <point x="646" y="1007" type="curve" smooth="yes"/>
      <point x="474" y="1007" type="line"/>
      <point x="418" y="545" type="line"/>
      <point x="640" y="545" type="line" smooth="yes"/>
      <point x="829" y="545"/>
      <point x="957" y="626"/>
    </contour>
    <contour>
      <point x="570" y="326" type="curve" smooth="yes"/>
      <point x="390" y="326" type="line"/>
      <point x="351" y="0" type="line"/>
      <point x="101" y="0" type="line"/>
      <point x="279" y="1456" type="line"/>
      <point x="532" y="1456" type="line"/>
      <point x="503" y="1223" type="line"/>
      <point x="661" y="1223" type="line" smooth="yes"/>
      <point x="979" y="1223"/>
      <point x="1232" y="1157"/>
      <point x="1232" y="851" type="curve" smooth="yes"/>
      <point x="1232" y="477"/>
      <point x="913" y="326"/>
    </contour>
  </outline>
</glyph>
<glyph name="germandbls" format="1">
  <advance width="1265"/>
  <unicode hex="00DF"/>
  <outline>
    <contour>
      <point x="876" y="377" type="curve" smooth="yes"/>
      <point x="876" y="506"/>
      <point x="786" y="592"/>
      <point x="568" y="709" type="curve"/>
      <point x="591" y="897" type="line"/>
      <point x="693" y="939"/>
      <point x="810" y="1037"/>
      <point x="824" y="1146" type="curve" smooth="yes"/>
      <point x="825" y="1152"/>
      <point x="825" y="1157"/>
      <point x="825" y="1162" type="curve" smooth="yes"/>
      <point x="825" y="1239"/>
      <point x="753" y="1280"/>
      <point x="676" y="1280" type="curve" smooth="yes"/>
      <point x="546" y="1280"/>
      <point x="444" y="1185"/>
      <point x="421" y="999" type="curve" smooth="yes"/>
      <point x="297" y="0" type="line"/>
      <point x="57" y="0" type="line"/>
      <point x="178" y="1000" type="line" smooth="yes"/>
      <point x="216" y="1327"/>
      <point x="418" y="1478"/>
      <point x="698" y="1478" type="curve" smooth="yes"/>
      <point x="938" y="1478"/>
      <point x="1098" y="1362"/>
      <point x="1098" y="1195" type="curve" smooth="yes"/>
      <point x="1098" y="1184"/>
      <point x="1097" y="1173"/>
      <point x="1096" y="1161" type="curve" smooth="yes"/>
      <point x="1082" y="1044"/>
      <point x="1000" y="915"/>
      <point x="866" y="852" type="curve" smooth="yes"/>
      <point x="827" y="833"/>
      <point x="795" y="822"/>
      <point x="754" y="811" type="curve"/>
      <point x="970" y="762"/>
      <point x="1156" y="637"/>
      <point x="1156" y="408" type="curve" smooth="yes"/>
      <point x="1156" y="141"/>
      <point x="951" y="-22"/>
      <point x="737" y="-22" type="curve" smooth="yes"/>
      <point x="560" y="-22"/>
      <point x="420" y="37"/>
      <point x="420" y="37" type="curve"/>
      <point x="486" y="230" type="line"/>
      <point x="486" y="230"/>
      <point x="592" y="175"/>
      <point x="694" y="175" type="curve" smooth="yes"/>
      <point x="809" y="175"/>
      <point x="876" y="241"/>
    </contour>
  </outline>
</glyph>
<glyph name="ae" format="1">
  <advance width="1776"/>
  <unicode hex="00E6"/>
  <outline>
    <contour>
      <point x="994" y="632" type="curve"/>
      <point x="1455" y="632" type="line"/>
      <point x="1458" y="655" type="line" smooth="yes"/>
      <point x="1459" y="664"/>
      <point x="1459" y="672"/>
      <point x="1459" y="681" type="curve" smooth="yes"/>
      <point x="1459" y="810"/>
      <point x="1363" y="872"/>
      <point x="1272" y="872" type="curve" smooth="yes"/>
      <point x="1136" y="872"/>
      <point x="1043" y="763"/>
    </contour>
    <contour>
      <point x="284" y="286" type="curve" smooth="yes"/>
      <point x="284" y="207"/>
      <point x="354" y="177"/>
      <point x="439" y="177" type="curve" smooth="yes"/>
      <point x="628" y="177"/>
      <point x="709" y="332"/>
      <point x="730" y="467" type="curve"/>
      <point x="630" y="467" type="line" smooth="yes"/>
      <point x="463" y="467"/>
      <point x="284" y="427"/>
    </contour>
    <contour>
      <point x="1666" y="634" type="curve" smooth="yes"/>
      <point x="1666" y="597"/>
      <point x="1664" y="558"/>
      <point x="1659" y="519" type="curve" smooth="yes"/>
      <point x="1656" y="494"/>
      <point x="1647" y="467"/>
      <point x="1647" y="467" type="curve"/>
      <point x="970" y="467" type="line"/>
      <point x="968" y="456"/>
      <point x="967" y="446"/>
      <point x="967" y="433" type="curve" smooth="yes"/>
      <point x="967" y="249"/>
      <point x="1058" y="177"/>
      <point x="1212" y="177" type="curve" smooth="yes"/>
      <point x="1377" y="177"/>
      <point x="1549" y="289"/>
      <point x="1549" y="289" type="curve"/>
      <point x="1594" y="108" type="line"/>
      <point x="1594" y="108"/>
      <point x="1400" y="-23"/>
      <point x="1177" y="-23" type="curve" smooth="yes"/>
      <point x="998" y="-23"/>
      <point x="871" y="22"/>
      <point x="814" y="172" type="curve"/>
      <point x="723" y="25"/>
      <point x="550" y="-22"/>
      <point x="408" y="-22" type="curve" smooth="yes"/>
      <point x="184" y="-22"/>
      <point x="41" y="73"/>
      <point x="41" y="249" type="curve" smooth="yes"/>
      <point x="41" y="264"/>
      <point x="42" y="278"/>
      <point x="44" y="294" type="curve" smooth="yes"/>
      <point x="76" y="562"/>
      <point x="284" y="638"/>
      <point x="711" y="638" type="curve" smooth="yes"/>
      <point x="751" y="638" type="line"/>
      <point x="752" y="649"/>
      <point x="753" y="660"/>
      <point x="753" y="670" type="curve" smooth="yes"/>
      <point x="753" y="781"/>
      <point x="684" y="859"/>
      <point x="550" y="859" type="curve" smooth="yes"/>
      <point x="488" y="859"/>
      <point x="403" y="845"/>
      <point x="254" y="778" type="curve"/>
      <point x="204" y="942" type="line"/>
      <point x="256" y="971"/>
      <point x="398" y="1052"/>
      <point x="630" y="1052" type="curve" smooth="yes"/>
      <point x="729" y="1052"/>
      <point x="874" y="992"/>
      <point x="924" y="864" type="curve"/>
      <point x="1005" y="989"/>
      <point x="1174" y="1052"/>
      <point x="1295" y="1052" type="curve" smooth="yes"/>
      <point x="1562" y="1052"/>
      <point x="1666" y="871"/>
    </contour>
  </outline>
</glyph>
<glyph name="eth" format="1">
  <advance width="1217"/>
  <unicode hex="00F0"/>
  <outline>
    <contour>
      <point x="810" y="476" type="curve" smooth="yes"/>
      <point x="810" y="615"/>
      <point x="699" y="693"/>
      <point x="585" y="693" type="curve" smooth="yes"/>
      <point x="461" y="693"/>
      <point x="319" y="604"/>
      <point x="319" y="402" type="curve" smooth="yes"/>
      <point x="319" y="242"/>
      <point x="428" y="172"/>
      <point x="539" y="172" type="curve" smooth="yes"/>
      <point x="648" y="172"/>
      <point x="810" y="273"/>
    </contour>
    <contour>
      <point x="494" y="-25" type="curve" smooth="yes"/>
      <point x="221" y="-25"/>
      <point x="67" y="170"/>
      <point x="67" y="404" type="curve" smooth="yes"/>
      <point x="67" y="426"/>
      <point x="68" y="448"/>
      <point x="71" y="471" type="curve" smooth="yes"/>
      <point x="104" y="734"/>
      <point x="278" y="902"/>
      <point x="556" y="902" type="curve" smooth="yes"/>
      <point x="666" y="902"/>
      <point x="781" y="874"/>
      <point x="881" y="753" type="curve"/>
      <point x="884" y="773"/>
      <point x="894" y="803"/>
      <point x="894" y="842" type="curve" smooth="yes"/>
      <point x="894" y="908"/>
      <point x="865" y="999"/>
      <point x="721" y="1115" type="curve"/>
      <point x="451" y="989" type="line"/>
      <point x="402" y="1122" type="line"/>
      <point x="572" y="1201" type="line"/>
      <point x="518" y="1219"/>
      <point x="452" y="1237"/>
      <point x="365" y="1258" type="curve"/>
      <point x="463" y="1417" type="line"/>
      <point x="501" y="1416"/>
      <point x="648" y="1394"/>
      <point x="792" y="1306" type="curve"/>
      <point x="1064" y="1434" type="line"/>
      <point x="1114" y="1300" type="line"/>
      <point x="917" y="1208" type="line"/>
      <point x="1018" y="1112"/>
      <point x="1100" y="966"/>
      <point x="1100" y="743" type="curve" smooth="yes"/>
      <point x="1100" y="705"/>
      <point x="1097" y="664"/>
      <point x="1092" y="621" type="curve" smooth="yes"/>
      <point x="1034" y="155"/>
      <point x="818" y="-25"/>
    </contour>
  </outline>
</glyph>
<glyph name="divide" format="1">
  <advance width="1499"/>
  <unicode hex="00F7"/>
  <outline>
    <contour>
      <point x="654" y="840" type="line"/>
      <point x="687" y="1111" type="line"/>
      <point x="888" y="1111" type="line"/>
      <point x="855" y="840" type="line"/>
    </contour>
    <contour>
      <point x="155" y="449" type="line"/>
      <point x="181" y="656" type="line"/>
      <point x="1267" y="656" type="line"/>
      <point x="1242" y="449" type="line"/>
    </contour>
    <contour>
      <point x="551" y="-19" type="line"/>
      <point x="585" y="253" type="line"/>
      <point x="786" y="253" type="line"/>
      <point x="753" y="-19" type="line"/>
    </contour>
  </outline>
</glyph>
<glyph name="oslash" format="1">
  <advance width="1288"/>
  <unicode hex="00F8"/>
  <outline>
    <contour>
      <point x="582" y="-23" type="curve" smooth="yes"/>
      <point x="516" y="-23"/>
      <point x="458" y="-15"/>
      <point x="406" y="-0" type="curve"/>
      <point x="289" y="-199" type="line"/>
      <point x="196" y="-152" type="line"/>
      <point x="309" y="40" type="line"/>
      <point x="168" y="119"/>
      <point x="103" y="264"/>
      <point x="103" y="429" type="curve" smooth="yes"/>
      <point x="103" y="457"/>
      <point x="104" y="485"/>
      <point x="108" y="513" type="curve" smooth="yes"/>
      <point x="143" y="805"/>
      <point x="353" y="1052"/>
      <point x="713" y="1052" type="curve" smooth="yes"/>
      <point x="781" y="1052"/>
      <point x="841" y="1044"/>
      <point x="893" y="1029" type="curve"/>
      <point x="998" y="1207" type="line"/>
      <point x="1091" y="1161" type="line"/>
      <point x="989" y="988" type="line"/>
      <point x="1123" y="911"/>
      <point x="1184" y="770"/>
      <point x="1184" y="604" type="curve" smooth="yes"/>
      <point x="1184" y="574"/>
      <point x="1182" y="543"/>
      <point x="1178" y="511" type="curve" smooth="yes"/>
      <point x="1143" y="232"/>
      <point x="941" y="-23"/>
    </contour>
    <contour>
      <point x="925" y="586" type="curve" smooth="yes"/>
      <point x="925" y="663"/>
      <point x="906" y="730"/>
      <point x="865" y="778" type="curve"/>
      <point x="517" y="188" type="line"/>
      <point x="542" y="181"/>
      <point x="570" y="177"/>
      <point x="601" y="177" type="curve" smooth="yes"/>
      <point x="821" y="177"/>
      <point x="925" y="371"/>
    </contour>
    <contour>
      <point x="362" y="448" type="curve" smooth="yes"/>
      <point x="362" y="366"/>
      <point x="382" y="292"/>
      <point x="429" y="242" type="curve"/>
      <point x="779" y="837" type="line"/>
      <point x="752" y="846"/>
      <point x="721" y="851"/>
      <point x="686" y="851" type="curve" smooth="yes"/>
      <point x="476" y="851"/>
      <point x="362" y="668"/>
    </contour>
  </outline>
</glyph>
<glyph name="thorn" format="1">
  <advance width="1229"/>
  <unicode hex="00FE"/>
  <outline>
    <contour>
      <point x="871" y="598" type="curve" smooth="yes"/>
      <point x="871" y="736"/>
      <point x="820" y="849"/>
      <point x="665" y="849" type="curve" smooth="yes"/>
      <point x="476" y="849"/>
      <point x="391" y="680"/>
      <point x="368" y="494" type="curve" smooth="yes"/>
      <point x="365" y="471"/>
      <point x="364" y="448"/>
      <point x="364" y="427" type="curve" smooth="yes"/>
      <point x="364" y="280"/>
      <point x="433" y="177"/>
      <point x="574" y="177" type="curve" smooth="yes"/>
      <point x="770" y="177"/>
      <point x="871" y="379"/>
    </contour>
    <contour>
      <point x="27" y="-395" type="line"/>
      <point x="254" y="1464" type="line"/>
      <point x="492" y="1464" type="line"/>
      <point x="426" y="948" type="line"/>
      <point x="493" y="1012"/>
      <point x="633" y="1051"/>
      <point x="709" y="1051" type="curve" smooth="yes"/>
      <point x="994" y="1051"/>
      <point x="1132" y="856"/>
      <point x="1132" y="611" type="curve" smooth="yes"/>
      <point x="1132" y="583"/>
      <point x="1131" y="554"/>
      <point x="1127" y="525" type="curve" smooth="yes"/>
      <point x="1092" y="240"/>
      <point x="899" y="-23"/>
      <point x="576" y="-23" type="curve" smooth="yes"/>
      <point x="475" y="-23"/>
      <point x="378" y="16"/>
      <point x="314" y="62" type="curve"/>
      <point x="257" y="-395" type="line"/>
    </contour>
  </outline>
</glyph>
<glyph name="dotlessi" format="1">
  <advance width="485"/>
  <unicode hex="0131"/>
  <outline>
    <contour>
      <point x="40" y="0" type="line"/>
      <point x="166" y="1026" type="line"/>
      <point x="415" y="1026" type="line"/>
      <point x="289" y="0" type="line"/>
    </contour>
  </outline>
</glyph>
<glyph name="Lslash" format="1">
  <advance width="1166"/>
  <unicode hex="0141"/>
  <outline>
    <component base="L"/>
    <contour>
      <point x="-2" y="421" type="line"/>
      <point x="26" y="646" type="line"/>
      <point x="657" y="1096" type="line"/>
      <point x="629" y="871" type="line"/>
    </contour>
  </outline>
</glyph>
<glyph name="lslash" format="1">
  <advance width="503"/>
  <unicode hex="0142"/>
  <outline>
    <contour>
      <point x="28" y="0" type="line"/>
      <point x="118" y="727" type="line"/>
      <point x="-6" y="627" type="line"/>
      <point x="22" y="845" type="line"/>
      <point x="143" y="945" type="line"/>
      <point x="206" y="1458" type="line"/>
      <point x="455" y="1458" type="line"/>
      <point x="415" y="1130" type="line"/>
      <point x="528" y="1226" type="line"/>
      <point x="501" y="1003" type="line"/>
      <point x="388" y="904" type="line"/>
      <point x="277" y="0" type="line"/>
    </contour>
  </outline>
</glyph>
<glyph name="Eng" format="1">
  <advance width="1622"/>
  <unicode hex="014A"/>
  <outline>
    <contour>
      <point x="1547" y="1456" type="line"/>
      <point x="1368" y="1" type="line" smooth="yes"/>
      <point x="1324" y="-347"/>
      <point x="1093" y="-474"/>
      <point x="769" y="-474" type="curve"/>
      <point x="782" y="-279" type="line"/>
      <point x="944" y="-279"/>
      <point x="1097" y="-256"/>
      <point x="1123" y="-41" type="curve" smooth="yes"/>
      <point x="1140" y="98" type="line"/>
      <point x="612" y="947" type="line"/>
      <point x="504" y="1138" type="line"/>
      <point x="365" y="0" type="line"/>
      <point x="132" y="0" type="line"/>
      <point x="312" y="1456" type="line"/>
      <point x="579" y="1456" type="line"/>
      <point x="780" y="1120"/>
      <point x="991" y="795"/>
      <point x="1183" y="450" type="curve"/>
      <point x="1307" y="1456" type="line"/>
    </contour>
  </outline>
</glyph>
<glyph name="eng" format="1">
  <advance width="1191"/>
  <unicode hex="014B"/>
  <outline>
    <contour>
      <point x="436" y="-396" type="curve"/>
      <point x="459" y="-197" type="line"/>
      <point x="605" y="-197"/>
      <point x="758" y="-146"/>
      <point x="781" y="50" type="curve" smooth="yes"/>
      <point x="850" y="602" type="line" smooth="yes"/>
      <point x="854" y="636"/>
      <point x="856" y="666"/>
      <point x="856" y="693" type="curve" smooth="yes"/>
      <point x="856" y="807"/>
      <point x="816" y="852"/>
      <point x="711" y="852" type="curve" smooth="yes"/>
      <point x="619" y="852"/>
      <point x="458" y="768"/>
      <point x="439" y="614" type="curve" smooth="yes"/>
      <point x="364" y="0" type="line"/>
      <point x="116" y="0" type="line"/>
      <point x="195" y="635" type="line" smooth="yes"/>
      <point x="220" y="850"/>
      <point x="222" y="990"/>
      <point x="222" y="1020" type="curve" smooth="yes"/>
      <point x="222" y="1026" type="line"/>
      <point x="484" y="1026" type="line"/>
      <point x="466" y="878" type="line"/>
      <point x="538" y="995"/>
      <point x="686" y="1052"/>
      <point x="785" y="1052" type="curve" smooth="yes"/>
      <point x="982" y="1052"/>
      <point x="1104" y="969"/>
      <point x="1104" y="714" type="curve" smooth="yes"/>
      <point x="1104" y="675"/>
      <point x="1101" y="632"/>
      <point x="1095" y="585" type="curve" smooth="yes"/>
      <point x="1037" y="110" type="line" smooth="yes"/>
      <point x="995" y="-235"/>
      <point x="755" y="-396"/>
    </contour>
  </outline>
</glyph>
<glyph name="OE" format="1">
  <advance width="2057"/>
  <unicode hex="0152"/>
  <outline>
    <contour>
      <point x="756" y="174" type="curve" smooth="yes"/>
      <point x="932" y="174"/>
      <point x="1012" y="240"/>
      <point x="1024" y="251" type="curve"/>
      <point x="1138" y="1191" type="line"/>
      <point x="1102" y="1223"/>
      <point x="1038" y="1268"/>
      <point x="907" y="1268" type="curve" smooth="yes"/>
      <point x="888" y="1268"/>
      <point x="868" y="1267"/>
      <point x="846" y="1265" type="curve" smooth="yes"/>
      <point x="647" y="1244"/>
      <point x="426" y="1107"/>
      <point x="380" y="725" type="curve" smooth="yes"/>
      <point x="375" y="683"/>
      <point x="372" y="643"/>
      <point x="372" y="605" type="curve" smooth="yes"/>
      <point x="372" y="319"/>
      <point x="522" y="174"/>
    </contour>
    <contour>
      <point x="885" y="1483" type="curve" smooth="yes"/>
      <point x="1089" y="1483"/>
      <point x="1157" y="1407"/>
      <point x="1164" y="1398" type="curve"/>
      <point x="1171" y="1456" type="line"/>
      <point x="2007" y="1456" type="line"/>
      <point x="1980" y="1239" type="line"/>
      <point x="1398" y="1239" type="line"/>
      <point x="1351" y="854" type="line"/>
      <point x="1897" y="854" type="line"/>
      <point x="1869" y="636" type="line"/>
      <point x="1326" y="636" type="line"/>
      <point x="1275" y="217" type="line"/>
      <point x="1883" y="217" type="line"/>
      <point x="1856" y="0" type="line"/>
      <point x="992" y="0" type="line"/>
      <point x="1000" y="63" type="line"/>
      <point x="1000" y="63"/>
      <point x="898" y="-19"/>
      <point x="726" y="-24" type="curve"/>
      <point x="698" y="-24" type="line" smooth="yes"/>
      <point x="363" y="-24"/>
      <point x="97" y="169"/>
      <point x="97" y="590" type="curve" smooth="yes"/>
      <point x="97" y="1146"/>
      <point x="470" y="1483"/>
    </contour>
  </outline>
</glyph>
<glyph name="oe" format="1">
  <advance width="2003"/>
  <unicode hex="0153"/>
  <outline>
    <contour>
      <point x="1637" y="688" type="curve" smooth="yes"/>
      <point x="1637" y="799"/>
      <point x="1538" y="857"/>
      <point x="1431" y="857" type="curve" smooth="yes"/>
      <point x="1307" y="857"/>
      <point x="1199" y="791"/>
      <point x="1164" y="641" type="curve"/>
      <point x="1633" y="641" type="line"/>
      <point x="1634" y="657"/>
      <point x="1637" y="673"/>
    </contour>
    <contour>
      <point x="897" y="593" type="curve" smooth="yes"/>
      <point x="897" y="744"/>
      <point x="833" y="851"/>
      <point x="676" y="851" type="curve" smooth="yes"/>
      <point x="481" y="851"/>
      <point x="355" y="671"/>
      <point x="355" y="444" type="curve" smooth="yes"/>
      <point x="355" y="293"/>
      <point x="430" y="177"/>
      <point x="600" y="177" type="curve" smooth="yes"/>
      <point x="797" y="177"/>
      <point x="897" y="375"/>
    </contour>
    <contour>
      <point x="574" y="-22" type="curve" smooth="yes"/>
      <point x="268" y="-22"/>
      <point x="95" y="163"/>
      <point x="95" y="431" type="curve" smooth="yes"/>
      <point x="95" y="457"/>
      <point x="97" y="484"/>
      <point x="100" y="511" type="curve" smooth="yes"/>
      <point x="139" y="817"/>
      <point x="356" y="1052"/>
      <point x="698" y="1052" type="curve" smooth="yes"/>
      <point x="886" y="1052"/>
      <point x="1005" y="973"/>
      <point x="1064" y="873" type="curve"/>
      <point x="1157" y="988"/>
      <point x="1270" y="1055"/>
      <point x="1460" y="1055" type="curve" smooth="yes"/>
      <point x="1720" y="1055"/>
      <point x="1862" y="882"/>
      <point x="1862" y="610" type="curve" smooth="yes"/>
      <point x="1862" y="575"/>
      <point x="1860" y="537"/>
      <point x="1855" y="499" type="curve" smooth="yes"/>
      <point x="1848" y="433" type="line"/>
      <point x="1137" y="433" type="line" smooth="yes"/>
      <point x="1136" y="434"/>
      <point x="1136" y="410"/>
      <point x="1136" y="410" type="curve" smooth="yes"/>
      <point x="1136" y="395" type="line" smooth="yes"/>
      <point x="1136" y="245"/>
      <point x="1237" y="177"/>
      <point x="1416" y="177" type="curve" smooth="yes"/>
      <point x="1588" y="177"/>
      <point x="1748" y="288"/>
      <point x="1748" y="288" type="curve"/>
      <point x="1792" y="107" type="line"/>
      <point x="1792" y="107"/>
      <point x="1617" y="-22"/>
      <point x="1363" y="-22" type="curve" smooth="yes"/>
      <point x="1204" y="-22"/>
      <point x="1040" y="51"/>
      <point x="977" y="159" type="curve"/>
      <point x="899" y="54"/>
      <point x="728" y="-22"/>
    </contour>
  </outline>
</glyph>
<glyph name="florin" format="1">
  <advance width="1111"/>
  <unicode hex="0192"/>
  <outline>
    <contour>
      <point x="95" y="-315" type="curve" smooth="yes"/>
      <point x="93" y="-315"/>
      <point x="37" y="-313"/>
      <point x="-11" y="-297" type="curve"/>
      <point x="32" y="-90" type="line"/>
      <point x="39" y="-91"/>
      <point x="84" y="-100"/>
      <point x="128" y="-100" type="curve" smooth="yes"/>
      <point x="178" y="-100"/>
      <point x="243" y="-88"/>
      <point x="297" y="87" type="curve" smooth="yes"/>
      <point x="463" y="633" type="line"/>
      <point x="324" y="633" type="line"/>
      <point x="385" y="796" type="line"/>
      <point x="515" y="796" type="line"/>
      <point x="610" y="1107" type="line" smooth="yes"/>
      <point x="653" y="1244"/>
      <point x="737" y="1450"/>
      <point x="1009" y="1450" type="curve" smooth="yes"/>
      <point x="1140" y="1450"/>
      <point x="1193" y="1405"/>
      <point x="1193" y="1405" type="curve"/>
      <point x="1152" y="1205" type="line"/>
      <point x="1140" y="1209"/>
      <point x="1085" y="1225"/>
      <point x="1039" y="1225" type="curve" smooth="yes"/>
      <point x="991" y="1225"/>
      <point x="923" y="1215"/>
      <point x="886" y="1095" type="curve" smooth="yes"/>
      <point x="791" y="796" type="line"/>
      <point x="941" y="796" type="line"/>
      <point x="888" y="633" type="line"/>
      <point x="734" y="633" type="line"/>
      <point x="555" y="45" type="line" smooth="yes"/>
      <point x="471" y="-233"/>
      <point x="308" y="-315"/>
    </contour>
  </outline>
</glyph>
<glyph name="dotlessj" format="1">
  <advance width="600"/>
  <unicode hex="0237"/>
  <outline>
    <contour>
      <point x="16" y="-362" type="curve" smooth="yes"/>
      <point x="-95" y="-362"/>
      <point x="-169" y="-338"/>
      <point x="-169" y="-335" type="curve"/>
      <point x="-166" y="-335" type="line" smooth="yes"/>
      <point x="-118.291" y="-165.035" type="line"/>
      <point x="-104.948" y="-169.197"/>
      <point x="-44.201" y="-184"/>
      <point x="22" y="-184" type="curve" smooth="yes"/>
      <point x="109" y="-184"/>
      <point x="157" y="-161"/>
      <point x="179" y="20" type="curve" smooth="yes"/>
      <point x="303" y="1026" type="line"/>
      <point x="542" y="1026" type="line"/>
      <point x="415" y="-9" type="line" smooth="yes"/>
      <point x="387" y="-237"/>
      <point x="313" y="-362"/>
    </contour>
    <contour>
      <point x="-118.291" y="-165.035" type="curve" smooth="yes"/>
      <point x="-118" y="-164" type="line"/>
      <point x="-121" y="-164" type="line" smooth="yes"/>
      <point x="-121" y="-164.117"/>
      <point x="-120.064" y="-164.482"/>
    </contour>
  </outline>
</glyph>
<glyph name="uni02C9" format="1">
  <advance width="756"/>
  <unicode hex="02C9"/>
  <outline>
    <contour>
      <point x="56" y="1146" type="line"/>
      <point x="75" y="1303" type="line"/>
      <point x="700" y="1303" type="line"/>
      <point x="681" y="1146" type="line"/>
    </contour>
  </outline>
</glyph>
<glyph name="breve" format="1">
  <advance width="700"/>
  <unicode hex="02D8"/>
  <outline>
    <contour>
      <point x="334" y="1160" type="curve" smooth="yes"/>
      <point x="153" y="1160"/>
      <point x="47" y="1237"/>
      <point x="47" y="1427" type="curve" smooth="yes"/>
      <point x="47" y="1436"/>
      <point x="47" y="1446"/>
      <point x="48" y="1456" type="curve"/>
      <point x="222" y="1456" type="line"/>
      <point x="222" y="1445" type="line" smooth="yes"/>
      <point x="222" y="1348"/>
      <point x="289" y="1334"/>
      <point x="356" y="1334" type="curve" smooth="yes"/>
      <point x="425" y="1334"/>
      <point x="494" y="1349"/>
      <point x="517" y="1456" type="curve"/>
      <point x="689" y="1456" type="line"/>
      <point x="649" y="1245"/>
      <point x="524" y="1160"/>
    </contour>
  </outline>
</glyph>
<glyph name="dotaccent" format="1">
  <advance width="524"/>
  <unicode hex="02D9"/>
  <outline>
    <contour>
      <point x="114" y="1166" type="line"/>
      <point x="141" y="1394" type="line"/>
      <point x="387" y="1394" type="line"/>
      <point x="360" y="1166" type="line"/>
    </contour>
  </outline>
</glyph>
<glyph name="ring" format="1">
  <advance width="700"/>
  <unicode hex="02DA"/>
  <outline>
    <contour>
      <point x="365" y="1579" type="curve" smooth="yes"/>
      <point x="477" y="1579"/>
      <point x="561" y="1503"/>
      <point x="561" y="1394" type="curve" smooth="yes"/>
      <point x="561" y="1252"/>
      <point x="439" y="1153"/>
      <point x="312" y="1153" type="curve" smooth="yes"/>
      <point x="200" y="1153"/>
      <point x="116" y="1229"/>
      <point x="116" y="1337" type="curve" smooth="yes"/>
      <point x="116" y="1480"/>
      <point x="237" y="1579"/>
    </contour>
    <contour>
      <point x="447" y="1379" type="curve" smooth="yes"/>
      <point x="447" y="1433"/>
      <point x="407" y="1474"/>
      <point x="352" y="1474" type="curve" smooth="yes"/>
      <point x="291" y="1474"/>
      <point x="232" y="1422"/>
      <point x="232" y="1353" type="curve" smooth="yes"/>
      <point x="232" y="1299"/>
      <point x="272" y="1257"/>
      <point x="326" y="1257" type="curve" smooth="yes"/>
      <point x="388" y="1257"/>
      <point x="447" y="1310"/>
    </contour>
  </outline>
</glyph>
<glyph name="ogonek" format="1">
  <advance width="508"/>
  <unicode hex="02DB"/>
  <outline>
    <contour>
      <point x="253" y="-164" type="curve" smooth="yes"/>
      <point x="253" y="-198"/>
      <point x="283" y="-204"/>
      <point x="310" y="-204" type="curve" smooth="yes"/>
      <point x="375" y="-204"/>
      <point x="465" y="-174"/>
      <point x="489" y="-167" type="curve"/>
      <point x="471" y="-315" type="line"/>
      <point x="378" y="-342"/>
      <point x="287" y="-356"/>
      <point x="212" y="-356" type="curve" smooth="yes"/>
      <point x="94" y="-356"/>
      <point x="14" y="-322"/>
      <point x="14" y="-243" type="curve" smooth="yes"/>
      <point x="14" y="-85"/>
      <point x="212" y="-15"/>
      <point x="289" y="21" type="curve"/>
      <point x="424" y="23" type="line"/>
      <point x="322" y="-31"/>
      <point x="253" y="-109"/>
    </contour>
  </outline>
</glyph>
<glyph name="hungarumlaut" format="1">
  <advance width="969"/>
  <unicode hex="02DD"/>
  <outline>
    <contour>
      <point x="356" y="1112" type="line"/>
      <point x="629" y="1456" type="line"/>
      <point x="934" y="1456" type="line"/>
      <point x="542" y="1112" type="line"/>
    </contour>
    <contour>
      <point x="48" y="1112" type="line"/>
      <point x="284" y="1456" type="line"/>
      <point x="570" y="1456" type="line"/>
      <point x="227" y="1112" type="line"/>
    </contour>
  </outline>
</glyph>
<glyph name="uni0307" format="1">
  <advance width="524"/>
  <unicode hex="0307"/>
  <outline>
    <contour>
      <point x="122" y="1153" type="line"/>
      <point x="150" y="1386" type="line"/>
      <point x="402" y="1386" type="line"/>
      <point x="374" y="1153" type="line"/>
    </contour>
  </outline>
</glyph>
<glyph name="uni030F" format="1">
  <advance width="969"/>
  <unicode hex="030F"/>
  <outline>
    <contour>
      <point x="676" y="1164" type="line"/>
      <point x="414" y="1500" type="line"/>
      <point x="711" y="1500" type="line"/>
      <point x="859" y="1164" type="line"/>
    </contour>
    <contour>
      <point x="366" y="1164" type="line"/>
      <point x="53" y="1500" type="line"/>
      <point x="372" y="1500" type="line"/>
      <point x="558" y="1164" type="line"/>
    </contour>
  </outline>
</glyph>
<glyph name="uni0311" format="1">
  <advance width="629"/>
  <unicode hex="0311"/>
  <outline>
    <contour>
      <point x="-32" y="1151" type="line"/>
      <point x="6" y="1361"/>
      <point x="123" y="1454"/>
      <point x="331" y="1454" type="curve" smooth="yes"/>
      <point x="531" y="1454"/>
      <point x="626" y="1368"/>
      <point x="626" y="1178" type="curve" smooth="yes"/>
      <point x="626" y="1169"/>
      <point x="625" y="1160"/>
      <point x="625" y="1151" type="curve"/>
      <point x="437" y="1151" type="line" smooth="yes"/>
      <point x="437" y="1157" type="line" smooth="yes"/>
      <point x="437" y="1251"/>
      <point x="364" y="1267"/>
      <point x="308" y="1267" type="curve" smooth="yes"/>
      <point x="251" y="1267"/>
      <point x="174" y="1251"/>
      <point x="157" y="1151" type="curve"/>
    </contour>
  </outline>
</glyph>
<glyph name="uni0326" format="1">
  <advance width="540"/>
  <unicode hex="0326"/>
  <outline>
    <contour>
      <point x="42" y="-647" type="line"/>
      <point x="218" y="-142" type="line"/>
      <point x="498" y="-142" type="line"/>
      <point x="254" y="-647" type="line"/>
    </contour>
  </outline>
</glyph>
<glyph name="uni0358" format="1">
  <advance width="524"/>
  <unicode hex="0358"/>
  <outline>
    <contour>
      <point x="122" y="1153" type="line"/>
      <point x="150" y="1386" type="line"/>
      <point x="402" y="1386" type="line"/>
      <point x="374" y="1153" type="line"/>
    </contour>
  </outline>
</glyph>
<glyph name="Sigma" format="1">
  <advance width="1262"/>
  <unicode hex="03A3"/>
  <outline>
    <contour>
      <point x="-24" y="-267" type="line"/>
      <point x="-8" y="-134" type="line"/>
      <point x="602" y="604" type="line"/>
      <point x="194" y="1328" type="line"/>
      <point x="210" y="1456" type="line"/>
      <point x="1276" y="1456" type="line"/>
      <point x="1250" y="1252" type="line"/>
      <point x="558" y="1252" type="line"/>
      <point x="907" y="606" type="line"/>
      <point x="383" y="-55" type="line"/>
      <point x="1131" y="-55" type="line"/>
      <point x="1106" y="-267" type="line"/>
    </contour>
  </outline>
</glyph>
<glyph name="Omega" format="1">
  <advance width="1603"/>
  <unicode hex="03A9"/>
  <outline>
    <contour>
      <point x="887" y="1479" type="curve" smooth="yes"/>
      <point x="1256" y="1479"/>
      <point x="1524" y="1268"/>
      <point x="1524" y="909" type="curve" smooth="yes"/>
      <point x="1524" y="878"/>
      <point x="1522" y="847"/>
      <point x="1518" y="814" type="curve" smooth="yes"/>
      <point x="1487" y="554"/>
      <point x="1402" y="368"/>
      <point x="1174" y="208" type="curve"/>
      <point x="1501" y="211" type="line"/>
      <point x="1450" y="0" type="line"/>
      <point x="824" y="0" type="line"/>
      <point x="845" y="170" type="line"/>
      <point x="1045" y="287"/>
      <point x="1212" y="496"/>
      <point x="1246" y="769" type="curve" smooth="yes"/>
      <point x="1249" y="794"/>
      <point x="1251" y="824"/>
      <point x="1251" y="857" type="curve" smooth="yes"/>
      <point x="1251" y="1029"/>
      <point x="1188" y="1274"/>
      <point x="864" y="1274" type="curve" smooth="yes"/>
      <point x="467" y="1274"/>
      <point x="379" y="916"/>
      <point x="361" y="768" type="curve" smooth="yes"/>
      <point x="357" y="737"/>
      <point x="355" y="706"/>
      <point x="355" y="677" type="curve" smooth="yes"/>
      <point x="355" y="448"/>
      <point x="467" y="275"/>
      <point x="618" y="170" type="curve"/>
      <point x="597" y="0" type="line"/>
      <point x="-21" y="0" type="line"/>
      <point x="-17" y="211" type="line"/>
      <point x="300" y="208" type="line"/>
      <point x="151" y="335"/>
      <point x="92" y="480"/>
      <point x="92" y="670" type="curve" smooth="yes"/>
      <point x="92" y="1170"/>
      <point x="434" y="1479"/>
    </contour>
  </outline>
</glyph>
<glyph name="pi" format="1">
  <advance width="1288"/>
  <unicode hex="03C0"/>
  <outline>
    <contour>
      <point x="98" y="0" type="line"/>
      <point x="220" y="183"/>
      <point x="284" y="563"/>
      <point x="326" y="846" type="curve"/>
      <point x="205" y="843"/>
      <point x="122" y="812"/>
      <point x="91" y="785" type="curve"/>
      <point x="96" y="963" type="line"/>
      <point x="132" y="992"/>
      <point x="231" y="1026"/>
      <point x="363" y="1026" type="curve" smooth="yes"/>
      <point x="1278" y="1026" type="line"/>
      <point x="1256" y="846" type="line"/>
      <point x="1051" y="846" type="line"/>
      <point x="987" y="325" type="line" smooth="yes"/>
      <point x="985" y="308"/>
      <point x="983" y="290"/>
      <point x="983" y="271" type="curve" smooth="yes"/>
      <point x="983" y="223"/>
      <point x="997" y="178"/>
      <point x="1068" y="178" type="curve" smooth="yes"/>
      <point x="1089" y="178"/>
      <point x="1125" y="182"/>
      <point x="1165" y="191" type="curve"/>
      <point x="1140" y="-6" type="line"/>
      <point x="1092" y="-15"/>
      <point x="1024" y="-20"/>
      <point x="985" y="-20" type="curve" smooth="yes"/>
      <point x="844" y="-20"/>
      <point x="746" y="45"/>
      <point x="746" y="209" type="curve" smooth="yes"/>
      <point x="746" y="227"/>
      <point x="747" y="247"/>
      <point x="750" y="268" type="curve" smooth="yes"/>
      <point x="822" y="846" type="line"/>
      <point x="550" y="846" type="line"/>
      <point x="550" y="846"/>
      <point x="460" y="178"/>
      <point x="346" y="0" type="curve"/>
    </contour>
  </outline>
</glyph>
<glyph name="emdash" format="1">
  <advance width="2171"/>
  <unicode hex="2014"/>
  <outline>
    <contour>
      <point x="17" y="453" type="line"/>
      <point x="42" y="658" type="line"/>
      <point x="2154" y="658" type="line"/>
      <point x="2129" y="453" type="line"/>
    </contour>
  </outline>
</glyph>
<glyph name="uni2015" format="1">
  <advance width="4095"/>
  <unicode hex="2015"/>
  <outline>
    <contour>
      <point x="43" y="453" type="line"/>
      <point x="66" y="641" type="line"/>
      <point x="4053" y="641" type="line"/>
      <point x="4030" y="453" type="line"/>
    </contour>
  </outline>
</glyph>
<glyph name="quotedblleft" format="1">
  <advance width="1024"/>
  <unicode hex="201C"/>
  <outline>
    <contour>
      <point x="556" y="865" type="line"/>
      <point x="807" y="1456" type="line"/>
      <point x="1017" y="1456" type="line"/>
      <point x="832" y="865" type="line"/>
    </contour>
    <contour>
      <point x="94" y="865" type="line"/>
      <point x="357" y="1456" type="line"/>
      <point x="566" y="1456" type="line"/>
      <point x="380" y="865" type="line"/>
    </contour>
  </outline>
</glyph>
<glyph name="quotedblbase" format="1">
  <advance width="1024"/>
  <unicode hex="201E"/>
  <outline>
    <contour>
      <point x="457" y="-220" type="line"/>
      <point x="628" y="262" type="line"/>
      <point x="902" y="262" type="line"/>
      <point x="673" y="-220" type="line"/>
    </contour>
    <contour>
      <point x="57" y="-220" type="line"/>
      <point x="227" y="262" type="line"/>
      <point x="500" y="262" type="line"/>
      <point x="279" y="-220" type="line"/>
    </contour>
  </outline>
</glyph>
<glyph name="bullet" format="1">
  <advance width="989"/>
  <unicode hex="2022"/>
  <outline>
    <contour>
      <point x="529" y="1010" type="curve" smooth="yes"/>
      <point x="715" y="1010"/>
      <point x="833" y="881"/>
      <point x="833" y="721" type="curve" smooth="yes"/>
      <point x="833" y="518"/>
      <point x="649" y="358"/>
      <point x="449" y="358" type="curve" smooth="yes"/>
      <point x="259" y="358"/>
      <point x="147" y="487"/>
      <point x="147" y="642" type="curve" smooth="yes"/>
      <point x="147" y="847"/>
      <point x="330" y="1010"/>
    </contour>
  </outline>
</glyph>
<glyph name="ellipsis" format="1">
  <advance width="1620"/>
  <unicode hex="2026"/>
  <outline>
    <contour>
      <point x="1141" y="-11" type="line"/>
      <point x="1174" y="260" type="line"/>
      <point x="1472" y="260" type="line"/>
      <point x="1440" y="-11" type="line"/>
    </contour>
    <contour>
      <point x="619" y="-11" type="line"/>
      <point x="652" y="260" type="line"/>
      <point x="954" y="260" type="line"/>
      <point x="922" y="-11" type="line"/>
    </contour>
    <contour>
      <point x="98" y="-11" type="line"/>
      <point x="131" y="260" type="line"/>
      <point x="432" y="260" type="line"/>
      <point x="401" y="-11" type="line"/>
    </contour>
  </outline>
</glyph>
<glyph name="perthousand" format="1">
  <advance width="2755"/>
  <unicode hex="2030"/>
  <outline>
    <component base="percent"/>
    <contour>
      <point x="2291" y="740" type="curve" smooth="yes"/>
      <point x="2497" y="740"/>
      <point x="2616" y="596"/>
      <point x="2616" y="412" type="curve" smooth="yes"/>
      <point x="2616" y="395"/>
      <point x="2615" y="377"/>
      <point x="2613" y="359" type="curve" smooth="yes"/>
      <point x="2585" y="141"/>
      <point x="2423" y="-20"/>
      <point x="2198" y="-20" type="curve" smooth="yes"/>
      <point x="1994" y="-20"/>
      <point x="1873" y="114"/>
      <point x="1873" y="301" type="curve" smooth="yes"/>
      <point x="1873" y="548"/>
      <point x="2051" y="740"/>
    </contour>
    <contour>
      <point x="2218" y="136" type="curve" smooth="yes"/>
      <point x="2321" y="136"/>
      <point x="2381" y="199"/>
      <point x="2402" y="359" type="curve" smooth="yes"/>
      <point x="2405" y="382"/>
      <point x="2406" y="404"/>
      <point x="2406" y="424" type="curve" smooth="yes"/>
      <point x="2406" y="529"/>
      <point x="2365" y="583"/>
      <point x="2272" y="583" type="curve" smooth="yes"/>
      <point x="2161" y="583"/>
      <point x="2106" y="508"/>
      <point x="2088" y="360" type="curve" smooth="yes"/>
      <point x="2085" y="335"/>
      <point x="2083" y="313"/>
      <point x="2083" y="293" type="curve" smooth="yes"/>
      <point x="2083" y="183"/>
      <point x="2131" y="136"/>
    </contour>
  </outline>
</glyph>
<glyph name="fraction" format="1">
  <advance width="1134"/>
  <unicode hex="2044"/>
  <outline>
    <contour>
      <point x="-101" y="0" type="line"/>
      <point x="962" y="1456" type="line"/>
      <point x="1211" y="1456" type="line"/>
      <point x="148" y="0" type="line"/>
    </contour>
  </outline>
</glyph>
<glyph name="foursuperior" format="1">
  <advance width="762"/>
  <unicode hex="2074"/>
  <outline>
    <contour>
      <point x="227" y="973" type="line"/>
      <point x="407" y="973" type="line"/>
      <point x="438" y="1229" type="line"/>
    </contour>
    <contour>
      <point x="368" y="642" type="line"/>
      <point x="392" y="837" type="line"/>
      <point x="25" y="837" type="line"/>
      <point x="38" y="952" type="line"/>
      <point x="470" y="1456" type="line"/>
      <point x="654" y="1456" type="line"/>
      <point x="594" y="973" type="line"/>
      <point x="712" y="973" type="line"/>
      <point x="695" y="837" type="line"/>
      <point x="578" y="837" type="line"/>
      <point x="554" y="642" type="line"/>
    </contour>
  </outline>
</glyph>
<glyph name="Euro" format="1">
  <advance width="1460"/>
  <unicode hex="20AC"/>
  <outline>
    <component base="C" xOffset="185"/>
    <contour>
      <point x="111" y="504" type="line"/>
      <point x="129" y="616" type="line"/>
      <point x="381" y="616" type="line"/>
      <point x="404" y="824" type="line"/>
      <point x="149" y="824" type="line"/>
      <point x="168" y="942" type="line"/>
      <point x="1082" y="942" type="line"/>
      <point x="1061" y="824" type="line"/>
      <point x="439" y="824" type="line"/>
      <point x="415" y="616" type="line"/>
      <point x="1006" y="616" type="line"/>
      <point x="986" y="504" type="line"/>
    </contour>
  </outline>
</glyph>
<glyph name="trademark" format="1">
  <advance width="1869"/>
  <unicode hex="2122"/>
  <outline>
    <contour>
      <point x="241" y="628" type="line"/>
      <point x="316" y="1242" type="line"/>
      <point x="100" y="1242" type="line"/>
      <point x="121" y="1412" type="line"/>
      <point x="755" y="1412" type="line"/>
      <point x="733" y="1242" type="line"/>
      <point x="510" y="1242" type="line"/>
      <point x="435" y="628" type="line"/>
    </contour>
    <contour>
      <point x="757" y="628" type="line"/>
      <point x="853" y="1412" type="line"/>
      <point x="1081" y="1412" type="line"/>
      <point x="1248" y="922" type="line"/>
      <point x="1531" y="1412" type="line"/>
      <point x="1760" y="1412" type="line"/>
      <point x="1664" y="628" type="line"/>
      <point x="1466" y="628" type="line"/>
      <point x="1520" y="1075" type="line"/>
      <point x="1272" y="628" type="line"/>
      <point x="1150" y="628" type="line"/>
      <point x="1004" y="1064" type="line"/>
      <point x="950" y="628" type="line"/>
    </contour>
  </outline>
</glyph>
<glyph name="partialdiff" format="1">
  <advance width="1162"/>
  <unicode hex="2202"/>
  <outline>
    <contour>
      <point x="258" y="369" type="curve" smooth="yes"/>
      <point x="258" y="252"/>
      <point x="313" y="179"/>
      <point x="409" y="179" type="curve" smooth="yes"/>
      <point x="554" y="179"/>
      <point x="683" y="279"/>
      <point x="781" y="644" type="curve"/>
      <point x="753" y="725"/>
      <point x="683" y="806"/>
      <point x="593" y="806" type="curve" smooth="yes"/>
      <point x="423" y="806"/>
      <point x="258" y="602"/>
    </contour>
    <contour>
      <point x="826" y="886" type="curve"/>
      <point x="828" y="920"/>
      <point x="837" y="971"/>
      <point x="837" y="1008" type="curve" smooth="yes"/>
      <point x="837" y="1186"/>
      <point x="752" y="1297"/>
      <point x="614" y="1297" type="curve" smooth="yes"/>
      <point x="470" y="1297"/>
      <point x="352" y="1235"/>
      <point x="302" y="1211" type="curve"/>
      <point x="309" y="1390" type="line"/>
      <point x="406" y="1455"/>
      <point x="536" y="1495"/>
      <point x="654" y="1495" type="curve" smooth="yes"/>
      <point x="925" y="1495"/>
      <point x="1084" y="1340"/>
      <point x="1084" y="995" type="curve" smooth="yes"/>
      <point x="1084" y="943"/>
      <point x="1081" y="885"/>
      <point x="1073" y="824" type="curve" smooth="yes"/>
      <point x="1021" y="405"/>
      <point x="782" y="-24"/>
      <point x="384" y="-24" type="curve" smooth="yes"/>
      <point x="129" y="-24"/>
      <point x="4" y="134"/>
      <point x="4" y="351" type="curve" smooth="yes"/>
      <point x="4" y="376"/>
      <point x="6" y="402"/>
      <point x="9" y="428" type="curve" smooth="yes"/>
      <point x="48" y="749"/>
      <point x="317" y="1002"/>
      <point x="604" y="1002" type="curve" smooth="yes"/>
      <point x="723" y="1002"/>
      <point x="811" y="947"/>
    </contour>
  </outline>
</glyph>
<glyph name="summation" format="1">
  <advance width="1262"/>
  <unicode hex="2211"/>
  <outline>
    <contour>
      <point x="-24" y="-267" type="line"/>
      <point x="-8" y="-134" type="line"/>
      <point x="602" y="604" type="line"/>
      <point x="194" y="1328" type="line"/>
      <point x="210" y="1456" type="line"/>
      <point x="1276" y="1456" type="line"/>
      <point x="1250" y="1252" type="line"/>
      <point x="558" y="1252" type="line"/>
      <point x="907" y="606" type="line"/>
      <point x="383" y="-55" type="line"/>
      <point x="1131" y="-55" type="line"/>
      <point x="1106" y="-267" type="line"/>
    </contour>
  </outline>
</glyph>
<glyph name="minus" format="1">
  <advance width="1499"/>
  <unicode hex="2212"/>
  <outline>
    <contour>
      <point x="188" y="284" type="line"/>
      <point x="214" y="486" type="line"/>
      <point x="1310" y="486" type="line"/>
      <point x="1284" y="284" type="line"/>
    </contour>
  </outline>
</glyph>
<glyph name="radical" format="1">
  <advance width="1314"/>
  <unicode hex="221A"/>
  <outline>
    <contour>
      <point x="411" y="-142" type="line"/>
      <point x="201" y="635" type="line" smooth="yes"/>
      <point x="198" y="634"/>
      <point x="37" y="605"/>
      <point x="37" y="605" type="curve"/>
      <point x="15" y="785" type="line"/>
      <point x="392" y="843" type="line"/>
      <point x="539" y="263" type="line"/>
      <point x="1049" y="1554" type="line"/>
      <point x="1277" y="1554" type="line"/>
      <point x="616" y="-142" type="line"/>
    </contour>
  </outline>
</glyph>
<glyph name="infinity" format="1">
  <advance width="1742"/>
  <unicode hex="221E"/>
  <outline>
    <contour>
      <point x="1254" y="385" type="curve" smooth="yes"/>
      <point x="1399" y="385"/>
      <point x="1466" y="492"/>
      <point x="1483" y="627" type="curve" smooth="yes"/>
      <point x="1484" y="635"/>
      <point x="1484" y="643"/>
      <point x="1484" y="651" type="curve" smooth="yes"/>
      <point x="1484" y="744"/>
      <point x="1420" y="820"/>
      <point x="1302" y="820" type="curve" smooth="yes"/>
      <point x="1176" y="820"/>
      <point x="1052" y="715"/>
      <point x="957" y="603" type="curve"/>
      <point x="1055" y="462"/>
      <point x="1136" y="385"/>
    </contour>
    <contour>
      <point x="264" y="574" type="curve" smooth="yes"/>
      <point x="264" y="475"/>
      <point x="331" y="385"/>
      <point x="458" y="385" type="curve" smooth="yes"/>
      <point x="582" y="385"/>
      <point x="698" y="484"/>
      <point x="800" y="601" type="curve"/>
      <point x="728" y="724"/>
      <point x="635" y="820"/>
      <point x="501" y="820" type="curve" smooth="yes"/>
      <point x="358" y="820"/>
      <point x="264" y="711"/>
    </contour>
    <contour>
      <point x="507" y="974" type="curve" smooth="yes"/>
      <point x="672" y="974"/>
      <point x="793" y="879"/>
      <point x="890" y="719" type="curve"/>
      <point x="1022" y="875"/>
      <point x="1155" y="974"/>
      <point x="1327" y="974" type="curve" smooth="yes"/>
      <point x="1529" y="974"/>
      <point x="1651" y="846"/>
      <point x="1651" y="663" type="curve" smooth="yes"/>
      <point x="1651" y="405"/>
      <point x="1443" y="231"/>
      <point x="1235" y="231" type="curve" smooth="yes"/>
      <point x="1084" y="231"/>
      <point x="972" y="309"/>
      <point x="860" y="486" type="curve"/>
      <point x="725" y="332"/>
      <point x="584" y="231"/>
      <point x="422" y="231" type="curve" smooth="yes"/>
      <point x="220" y="231"/>
      <point x="96" y="383"/>
      <point x="96" y="572" type="curve" smooth="yes"/>
      <point x="96" y="802"/>
      <point x="296" y="974"/>
    </contour>
  </outline>
</glyph>
<glyph name="integral" format="1">
  <advance width="820"/>
  <unicode hex="222B"/>
  <outline>
    <contour>
      <point x="84" y="-324" type="curve" smooth="yes"/>
      <point x="-24" y="-324"/>
      <point x="-84" y="-296"/>
      <point x="-84" y="-296" type="curve"/>
      <point x="-61" y="-109" type="line"/>
      <point x="-61" y="-109"/>
      <point x="12" y="-125"/>
      <point x="73" y="-125" type="curve" smooth="yes"/>
      <point x="157" y="-125"/>
      <point x="178" y="-67"/>
      <point x="192" y="40" type="curve" smooth="yes"/>
      <point x="329" y="1158" type="line" smooth="yes"/>
      <point x="356" y="1379"/>
      <point x="480" y="1542"/>
      <point x="709" y="1542" type="curve" smooth="yes"/>
      <point x="802" y="1542"/>
      <point x="882" y="1516"/>
      <point x="882" y="1516" type="curve"/>
      <point x="858" y="1321" type="line"/>
      <point x="858" y="1321"/>
      <point x="780" y="1343"/>
      <point x="723" y="1343" type="curve" smooth="yes"/>
      <point x="633" y="1343"/>
      <point x="603" y="1285"/>
      <point x="589" y="1179" type="curve" smooth="yes"/>
      <point x="452" y="59" type="line" smooth="yes"/>
      <point x="425" y="-161"/>
      <point x="315" y="-324"/>
    </contour>
  </outline>
</glyph>
<glyph name="notequal" format="1">
  <advance width="1387"/>
  <unicode hex="2260"/>
  <outline>
    <contour>
      <point x="437" y="35" type="line"/>
      <point x="247" y="66" type="line"/>
      <point x="386" y="300" type="line"/>
      <point x="121" y="300" type="line"/>
      <point x="144" y="488" type="line"/>
      <point x="506" y="488" type="line"/>
      <point x="624" y="673" type="line"/>
      <point x="166" y="673" type="line"/>
      <point x="189" y="862" type="line"/>
      <point x="738" y="862" type="line"/>
      <point x="899" y="1122" type="line"/>
      <point x="1095" y="1092" type="line"/>
      <point x="952" y="862" type="line"/>
      <point x="1258" y="862" type="line"/>
      <point x="1235" y="673" type="line"/>
      <point x="839" y="673" type="line"/>
      <point x="717" y="488" type="line"/>
      <point x="1213" y="488" type="line"/>
      <point x="1190" y="300" type="line"/>
      <point x="601" y="300" type="line"/>
    </contour>
  </outline>
</glyph>
<glyph name="greaterequal" format="1">
  <advance width="1351"/>
  <unicode hex="2265"/>
  <outline>
    <contour>
      <point x="14" y="0" type="line"/>
      <point x="38" y="189" type="line"/>
      <point x="1108" y="189" type="line"/>
      <point x="1084" y="0" type="line"/>
    </contour>
    <contour>
      <point x="52" y="261" type="line"/>
      <point x="81" y="489" type="line"/>
      <point x="844" y="807" type="line"/>
      <point x="162" y="1117" type="line"/>
      <point x="189" y="1340" type="line"/>
      <point x="1180" y="867" type="line"/>
      <point x="1166" y="752" type="line"/>
    </contour>
  </outline>
</glyph>
<glyph name="f_f" format="1">
  <advance width="1594"/>
  <unicode hex="FB00"/>
  <outline>
    <contour>
      <point x="1296" y="855" type="line"/>
      <point x="1192" y="0" type="line"/>
      <point x="939" y="0" type="line"/>
      <point x="1043" y="855" type="line"/>
      <point x="528" y="855" type="line"/>
      <point x="424" y="0" type="line"/>
      <point x="171" y="0" type="line"/>
      <point x="275" y="855" type="line"/>
      <point x="83" y="855" type="line"/>
      <point x="105" y="1026" type="line"/>
      <point x="297" y="1026" type="line"/>
      <point x="302" y="1062" type="line"/>
      <point x="338" y="1357"/>
      <point x="385" y="1485"/>
      <point x="789" y="1485" type="curve" smooth="yes"/>
      <point x="843" y="1485" type="line"/>
      <point x="809" y="1287" type="line"/>
      <point x="602" y="1287"/>
      <point x="579" y="1267"/>
      <point x="554" y="1063" type="curve" smooth="yes"/>
      <point x="550" y="1026" type="line"/>
      <point x="1065" y="1026" type="line"/>
      <point x="1070" y="1062" type="line"/>
      <point x="1106" y="1357"/>
      <point x="1153" y="1485"/>
      <point x="1557" y="1485" type="curve" smooth="yes"/>
      <point x="1611" y="1485" type="line"/>
      <point x="1577" y="1287" type="line"/>
      <point x="1370" y="1287"/>
      <point x="1347" y="1267"/>
      <point x="1322" y="1063" type="curve" smooth="yes"/>
      <point x="1318" y="1026" type="line"/>
      <point x="1569" y="1026" type="line"/>
      <point x="1547" y="855" type="line"/>
    </contour>
  </outline>
</glyph>
<glyph name="fi" format="1">
  <advance width="1292"/>
  <unicode hex="FB01"/>
  <outline>
    <contour>
      <point x="171" y="0" type="line"/>
      <point x="275" y="855" type="line"/>
      <point x="83" y="855" type="line"/>
      <point x="105" y="1026" type="line"/>
      <point x="297" y="1026" type="line"/>
      <point x="302" y="1062" type="line"/>
      <point x="338" y="1357"/>
      <point x="385" y="1485"/>
      <point x="789" y="1485" type="curve" smooth="yes"/>
      <point x="843" y="1485" type="line"/>
      <point x="809" y="1287" type="line"/>
      <point x="602" y="1287"/>
      <point x="579" y="1267"/>
      <point x="554" y="1063" type="curve"/>
      <point x="550" y="1026" type="line"/>
      <point x="1237" y="1026" type="line"/>
      <point x="1111" y="0" type="line"/>
      <point x="872" y="0" type="line"/>
      <point x="977" y="855" type="line"/>
      <point x="528" y="855" type="line"/>
      <point x="424" y="0" type="line"/>
    </contour>
    <contour>
      <point x="1023" y="1238" type="line"/>
      <point x="1049" y="1456" type="line"/>
      <point x="1289" y="1456" type="line"/>
      <point x="1263" y="1238" type="line"/>
    </contour>
  </outline>
</glyph>
<glyph name="fl" format="1">
  <advance width="1337"/>
  <unicode hex="FB02"/>
  <outline>
    <contour>
      <point x="164" y="0" type="line"/>
      <point x="270" y="855" type="line"/>
      <point x="84" y="855" type="line"/>
      <point x="104" y="1026" type="line"/>
      <point x="290" y="1026" type="line"/>
      <point x="291" y="1037" type="line"/>
      <point x="327" y="1330"/>
      <point x="418" y="1462"/>
      <point x="759" y="1462" type="curve" smooth="yes"/>
      <point x="1301" y="1462" type="line"/>
      <point x="1121" y="0" type="line"/>
      <point x="869" y="0" type="line"/>
      <point x="1024" y="1266" type="line"/>
      <point x="790" y="1266" type="line" smooth="yes"/>
      <point x="613" y="1266"/>
      <point x="568" y="1221"/>
      <point x="552" y="1093" type="curve" smooth="yes"/>
      <point x="544" y="1026" type="line"/>
      <point x="774" y="1026" type="line"/>
      <point x="753" y="855" type="line"/>
      <point x="523" y="855" type="line"/>
      <point x="418" y="0" type="line"/>
    </contour>
  </outline>
</glyph>
<glyph name="f_f_i" format="1">
  <advance width="2131"/>
  <unicode hex="FB03"/>
  <outline>
    <contour>
      <point x="2051" y="1233" type="line"/>
      <point x="1805" y="1233" type="line"/>
      <point x="1833" y="1456" type="line"/>
      <point x="2078" y="1456" type="line"/>
    </contour>
    <contour>
      <point x="1899" y="0" type="line"/>
      <point x="1654" y="0" type="line"/>
      <point x="1758" y="855" type="line"/>
      <point x="1292" y="855" type="line"/>
      <point x="1188" y="0" type="line"/>
      <point x="935" y="0" type="line"/>
      <point x="1039" y="855" type="line"/>
      <point x="529" y="855" type="line"/>
      <point x="425" y="0" type="line"/>
      <point x="172" y="0" type="line"/>
      <point x="276" y="855" type="line"/>
      <point x="84" y="855" type="line"/>
      <point x="106" y="1026" type="line"/>
      <point x="298" y="1026" type="line"/>
      <point x="303" y="1062" type="line"/>
      <point x="339" y="1357"/>
      <point x="386" y="1485"/>
      <point x="790" y="1485" type="curve" smooth="yes"/>
      <point x="844" y="1485" type="line"/>
      <point x="810" y="1288" type="line"/>
      <point x="603" y="1288"/>
      <point x="580" y="1268"/>
      <point x="555" y="1064" type="curve" smooth="yes"/>
      <point x="551" y="1026" type="line"/>
      <point x="1061" y="1026" type="line"/>
      <point x="1065" y="1062" type="line"/>
      <point x="1102" y="1357"/>
      <point x="1149" y="1485"/>
      <point x="1553" y="1485" type="curve" smooth="yes"/>
      <point x="1607" y="1485" type="line"/>
      <point x="1574" y="1288" type="line"/>
      <point x="1367" y="1288"/>
      <point x="1343" y="1268"/>
      <point x="1318" y="1064" type="curve" smooth="yes"/>
      <point x="1314" y="1026" type="line"/>
      <point x="2025" y="1026" type="line"/>
    </contour>
  </outline>
</glyph>
<glyph name="f_f_l" format="1">
  <advance width="2207"/>
  <unicode hex="FB04"/>
  <outline>
    <component base="fl" xOffset="737"/>
    <contour>
      <point x="170" y="0" type="line"/>
      <point x="274" y="855" type="line"/>
      <point x="83" y="855" type="line"/>
      <point x="105" y="1026" type="line"/>
      <point x="296" y="1026" type="line"/>
      <point x="301" y="1066" type="line" smooth="yes"/>
      <point x="337" y="1358"/>
      <point x="385" y="1485"/>
      <point x="784" y="1485" type="curve" smooth="yes"/>
      <point x="837" y="1485" type="line"/>
      <point x="805" y="1292" type="line"/>
      <point x="595" y="1292"/>
      <point x="572" y="1270"/>
      <point x="547" y="1069" type="curve"/>
      <point x="543" y="1026" type="line"/>
      <point x="945" y="1026" type="line"/>
      <point x="923" y="855" type="line"/>
      <point x="521" y="855" type="line"/>
      <point x="417" y="0" type="line"/>
    </contour>
  </outline>
</glyph>
